<?xml version="1.0" standalone="no"?>
<!DOCTYPE svg PUBLIC "-//W3C//DTD SVG 1.1//EN" "http://www.w3.org/Graphics/SVG/1.1/DTD/svg11.dtd" >
<!--
2013-9-30: Created.
-->
<svg>
<metadata>
Created by iconfont
</metadata>
<defs>

<font id="iconfont" horiz-adv-x="1024" >
  <font-face
    font-family="iconfont"
    font-weight="500"
    font-stretch="normal"
    units-per-em="1024"
    ascent="896"
    descent="-128"
  />
    <missing-glyph />
    
    <glyph glyph-name="x" unicode="x" horiz-adv-x="1001"
d="M281 543q-27 -1 -53 -1h-83q-18 0 -36.5 -6t-32.5 -18.5t-23 -32t-9 -45.5v-76h912v41q0 16 -0.5 30t-0.5 18q0 13 -5 29t-17 29.5t-31.5 22.5t-49.5 9h-133v-97h-438v97zM955 310v-52q0 -23 0.5 -52t0.5 -58t-10.5 -47.5t-26 -30t-33 -16t-31.5 -4.5q-14 -1 -29.5 -0.5
t-29.5 0.5h-32l-45 128h-439l-44 -128h-29h-34q-20 0 -45 1q-25 0 -41 9.5t-25.5 23t-13.5 29.5t-4 30v167h911zM163 247q-12 0 -21 -8.5t-9 -21.5t9 -21.5t21 -8.5q13 0 22 8.5t9 21.5t-9 21.5t-22 8.5zM316 123q-8 -26 -14 -48q-5 -19 -10.5 -37t-7.5 -25t-3 -15t1 -14.5
t9.5 -10.5t21.5 -4h37h67h81h80h64h36q23 0 34 12t2 38q-5 13 -9.5 30.5t-9.5 34.5q-5 19 -11 39h-368zM336 498v228q0 11 2.5 23t10 21.5t20.5 15.5t34 6h188q31 0 51.5 -14.5t20.5 -52.5v-227h-327z" />
    

    
    <glyph glyph-name="gold" unicode="&#58896;" d="M533.925116 89.171158l0 193.442293c50.398412-7.902977 88.942359-48.208159 88.942359-96.709857C622.890055 137.379316 584.346108 97.074135 533.925116 89.171158zM489.894245 331.228049c-46.401764 10.725469-80.903903 49.269416-80.903903 95.151841 0 45.905006 34.502139 84.426373 80.903903 95.151841L489.894245 331.228049zM533.925116 327.050761l0 196.016406c25.221786-3.951488 48.208159-15.941433 64.73667-34.479559 8.061036-9.054553 22.015436-9.890011 31.092569-1.761235 9.054553 8.083616 9.867431 22.015436 1.761235 31.069989-24.883087 27.863638-59.723925 45.430827-97.590474 49.675854L533.925116 612.393385c0 12.170584-9.890011 22.038015-22.015436 22.038015-12.170584 0-22.015436-9.867431-22.015436-22.038015l0-46.040485c-70.855832-11.673826-124.934774-69.930055-124.934774-139.97301s54.078942-128.299184 124.934774-139.97301l0-195.655127c-46.401764 10.748049-80.903903 49.269416-80.903903 95.174421 0 12.148004-9.867431 22.015436-22.015436 22.015436-12.148004 0-22.015436-9.867431-22.015436-22.015436 0-70.065535 54.078942-128.321764 124.934774-139.99559l0-46.040485c0-12.148004 9.867431-22.015436 22.015436-22.015436 12.148004 0 22.015436 9.867431 22.015436 22.015436l0 44.866329c74.784741 8.422315 132.97323 68.462359 132.97323 141.169746C666.898346 258.588401 608.709857 318.628445 533.925116 327.050761zM515.974068-107.996825 515.951488-107.996825c-228.350871 0-414.161147 185.787696-414.161147 414.138567 0 228.373451 185.787696 414.161147 414.161147 414.161147s414.161147-185.787696 414.161147-414.161147C930.090055 77.768291 744.324939-107.996825 515.974068-107.996825zM515.928908 764.33376c-252.64688 0-458.192018-205.545138-458.192018-458.192018 0.02258-252.6243 205.567718-458.169438 458.192018-458.169438l0.02258 22.015436 0-22.015436c252.6243 0 458.146858 205.545138 458.146858 458.169438C974.120926 558.788622 768.575788 764.33376 515.928908 764.33376z"  horiz-adv-x="1024" />

    
    <glyph glyph-name="gou" unicode="&#58880;" d="M0.020966-212l1023.958044 0L1023.979011 172.299573 0.020966-212zM978.676222-6.390155l-5.315052-1.63115-4.894474-2.330068-6.758937-3.495614-5.593392-3.495614-5.825682-3.962242-6.992251-5.594415-9.55461-7.922437-8.390088-7.691169-6.757914-6.526647-9.322319-9.787924-13.051247-14.332427-4.077875-4.311189-10.487865-12.353352-10.95347-13.166881-10.603499-13.633508-8.855692-11.885701-5.244444-7.457856-9.671267-13.633508-9.089006-13.634532-8.390088-14.099113-2.795673-5.010107-1.282203-2.219551-2.680039 3.617387-3.728928 4.312212-6.992251 8.274454-9.205663 10.486842-8.623401 9.44-11.30344 11.302417-12.351306 11.419074-9.555633 8.274454-8.623401 7.106862-6.060019 4.427846-7.225565 5.593392-4.427846 2.796696-7.92346 5.361101-5.593392 3.2623-6.525624 3.495614-6.757914 3.2623-6.992251 2.796696 80.171947 50.223868 39.503712-75.859735 45.562708 85.648682 1.340531 2.038426 1.572822 2.330068 5.244444 8.332782 5.126764 7.573489 4.662183 6.758937 4.89345 6.875594 4.776793 6.408967 4.428869 5.65172 7.865131 9.904581 5.01113 5.825682 3.845585 4.544503 3.350304 3.668553 2.388397 2.535753 2.563382 2.708692 2.417049 2.563382 2.477424 2.505054 2.679016 2.680039 2.535753 2.359744 2.447748 2.388397 2.825348 2.622734 2.505054 2.272763 1.982144 1.719154 1.835811 1.601474 1.805112 1.514493 1.632173 1.369184 1.282203 1.078565 1.922792 1.602498 1.981121 1.544169 1.165546 0.903579 1.660826 1.252527 1.660826 1.282203 3.582595 2.651386 3.175319 2.185782 2.768043 1.89414 2.826372 1.834788 2.184759 1.428535 1.281179 0.815575 1.720178 1.020236 1.397836 0.815575 2.942005 1.807159 4.632507 2.775206-0.088004-1.901303-0.261966-3.758604-0.699941-7.166213-1.047866-9.613962-1.048889-10.137895-0.611937-5.768377-0.699941-9.700943-0.436952-5.943362 0-6.117324 0.174985-7.953136 0.611937-8.040117 1.13587-8.215102 1.340531-6.554276 2.243087-8.215102 2.446725-7.079232 0.524956-1.572822 0.699941-1.572822 0.567935-0.961908L978.684408-6.390155z"  horiz-adv-x="1024" />

    
    <glyph glyph-name="chanpin" unicode="&#58894;" d="M933.40135437 711.13553906L699.91709469 855.99515531c-19.21030312 11.96436938-45.394665 10.36687031-63.05903157-3.82687312L511.9709375 751.69458188 387.11099938 852.15328219c-17.59124156 14.15436844-43.85341594 15.854055-62.99246907 3.86249812l-233.55925969-144.89992875c-30.9927975-19.28624062-34.49529562-64.46715563-6.15468468-87.80058187l108.38338406-90.54933-88.12964437-68.88465375c-29.13748594-22.47092625-27.50436188-67.87777875 3.28499812-88.11276938L332.11915156 227.12327812c19.33780313-12.74155594 44.832165-11.78530687 63.31496906 2.17031157l116.55275532 89.74495593 115.84681781-89.67558093c17.94561656-13.81311844 44.60904094-14.770305 63.44246906-2.20218657l224.25457688 148.64148938c30.53436 20.33248969 32.22842156 65.29496812 3.42937312 87.94776937l-87.87370687 68.86871625 108.33182156 90.554955C967.8704 646.62713344 964.56477688 691.69367344 933.40135437 711.13553906L933.40135437 711.13553906zM778.49080625 501.92876719l103.03963687-80.76464719L661.21242594 275.12419219000003l-102.71526188 79.48589812L778.49080625 501.92876719 778.49080625 501.92876719zM558.58528906 716.5561612500001l112.64994469 90.6196425 229.60769906-142.45774219L784.831115 567.70279781 558.58528906 716.5561612500001 558.58528906 716.5561612500001zM728.81364312 536.8037503099999L511.835 391.49600906 294.25823281 535.43312625l217.72301719 144.02992875L728.81364312 536.8037503099999 728.81364312 536.8037503099999zM465.22064844 354.48165281l-102.40682438-78.84371156L141.90518281 421.1613075l102.00744938 79.70996062L465.22064844 354.48165281 465.22064844 354.48165281zM123.14300469 664.709625L353.29257875 806.71830469l112.11931969-90.20433094L239.78669656 567.26311031 123.14300469 664.709625 123.14300469 664.709625zM518.81187125 250.68639186999997L368.98257031 136.65644812000005 193.543595 252.94295250000005l0-144.77336625c0-19.37999063 9.73874531-36.50623219 26.71873688-46.98466406l264.57455718-149.53211344c17.39999156-9.83343281 39.25685531-10.40530781 56.65028438-0.455625L804.51673063 61.64523469000005c16.0331175 9.87749531 25.99217438 27.70404844 25.99217437 46.5243525L830.508905 244.26076968999996 667.36336063 137.14394718999995 518.81187125 250.68639186999997zM250.14512938 147.51363000000003l88.76808093-58.83090844c19.25249063-12.73124344 44.82279-11.85186937 63.23809407 2.09906157l116.58556781 88.70901843 115.92369281-88.58433094c17.88561656-13.78874344 44.678415-14.8668675 63.44434406-2.20593656l75.7987125 50.22091313-0.0046875-29.60436L514.16562406-39.23534061999999 250.14512938 109.28427375000001 250.14512938 147.51363000000003 250.14512938 147.51363000000003z"  horiz-adv-x="1024" />

    
    <glyph glyph-name="fenxiang" unicode="&#59193;" d="M768.73106 192.462288c-35.606921 0-67.945574-14.793214-91.167479-38.359147l-309.109357 171.670082c9.116748 17.545439 14.621199 37.155048 14.621199 58.312783 0 12.55703-2.408198 24.426004-5.676466 35.950949l304.63699 189.215522c22.705863-20.469679 52.464304-33.198723 85.146985-33.198723 70.525785 0 127.978498 57.452713 127.978498 127.978498S837.708718 832.010751 767.182933 832.010751s-127.978498-57.452713-127.978498-127.978498c0-14.621199 2.92424-28.382328 7.396607-41.455401L344.716278 475.253486c-23.049891 22.705863-54.700487 36.983034-89.791366 36.983034-70.525785 0-127.978498-57.452713-127.978498-127.978498s57.452713-127.978498 127.978498-127.978498c25.630102 0 49.540064 7.740635 69.493701 20.813707l321.150344-178.378633c-3.096254-11.008903-5.160423-22.18982-5.160423-34.058794 0-70.525785 57.452713-127.978498 127.978498-127.978498s127.978498 57.452713 127.978498 127.978498S839.256845 192.462288 768.73106 192.462288zM767.182933 768.021502c35.262893 0 63.989249-28.726356 63.989249-63.989249s-28.726356-63.989249-63.989249-63.989249-63.989249 28.726356-63.989249 63.989249S731.92004 768.021502 767.182933 768.021502zM191.107677 384.086007c0 35.262893 28.726356 63.989249 63.989249 63.989249s63.989249-28.726356 63.989249-63.989249-28.726356-63.989249-63.989249-63.989249S191.107677 348.823114 191.107677 384.086007zM768.73106 0.494541c-35.262893 0-63.989249 28.726356-63.989249 63.989249s28.726356 63.989249 63.989249 63.989249 63.989249-28.726356 63.989249-63.989249C832.720309 29.048883 803.993953 0.494541 768.73106 0.494541z"  horiz-adv-x="1024" />

    
    <glyph glyph-name="shanchu" unicode="&#59217;" d="M607.897867 127.956996c-17.717453 0-31.994625 14.277171-31.994625 31.994625L575.903242 512.064505c0 17.717453 14.277171 31.994625 31.994625 31.994625s31.994625-14.277171 31.994625-31.994625l0-351.94087C639.892491 142.406182 625.61532 127.956996 607.897867 127.956996zM415.930119 127.956996c-17.717453 0-31.994625 14.277171-31.994625 31.994625L383.935495 512.064505c0 17.717453 14.277171 31.994625 31.994625 31.994625 17.717453 0 31.994625-14.277171 31.994625-31.994625l0-351.94087C447.924744 142.406182 433.647573 127.956996 415.930119 127.956996zM928.016126 672.037628l-159.973123 0L768.043004 736.026877c0 52.980346-42.659499 95.983874-95.295817 95.983874L351.94087 832.010751c-52.980346 0-95.983874-43.003528-95.983874-95.983874l0-63.989249-159.973123 0c-17.717453 0-31.994625-14.277171-31.994625-31.994625s14.277171-31.994625 31.994625-31.994625l832.032253 0c17.717453 0 31.994625 14.277171 31.994625 31.994625S945.73358 672.037628 928.016126 672.037628zM319.946246 736.026877c0 17.545439 14.449185 31.994625 31.994625 31.994625l320.806316 0c17.545439 0 31.306568-14.105157 31.306568-31.994625l0-63.989249L319.946246 672.037628 319.946246 736.026877 319.946246 736.026877zM736.048379-64.010751 288.123635-64.010751c-52.980346 0-95.983874 43.003528-95.983874 95.983874L192.139761 512.408534c0 17.717453 14.277171 31.994625 31.994625 31.994625s31.994625-14.277171 31.994625-31.994625l0-480.435411c0-17.717453 14.449185-31.994625 31.994625-31.994625l448.096758 0c17.717453 0 31.994625 14.277171 31.994625 31.994625L768.215018 511.204435c0 17.717453 14.277171 31.994625 31.994625 31.994625s31.994625-14.277171 31.994625-31.994625l0-479.231312C832.032253-20.835209 789.028725-64.010751 736.048379-64.010751z"  horiz-adv-x="1024" />

    
    <glyph glyph-name="sousuoleimu" unicode="&#59226;" d="M967.9234 79.793046l-147.416093 192.48379c52.29229 49.884092 85.146985 119.721821 85.146985 197.472199 0 150.684361-122.990089 273.330422-274.018478 273.330422-151.200403 0-274.018478-122.646061-274.018478-273.330422s122.990089-273.330422 274.018478-273.330422c48.679993 0 94.263733 12.901058 133.998992 35.090879l147.932135-193.171846c6.70855-8.77272 16.857383-13.417101 27.350244-13.417101 7.224593 0 14.621199 2.236183 20.641693 7.052579C976.524105 43.498068 979.448345 64.827818 967.9234 79.793046L967.9234 79.793046zM421.090543 469.749034c0 115.765496 94.435747 209.857215 210.545271 209.857215s210.545271-94.091718 210.545271-209.857215-94.435747-209.857215-210.545271-209.857215S421.090543 353.983538 421.090543 469.749034L421.090543 469.749034zM288.467663 607.188308 83.254829 607.188308c-18.921552 0-34.230808 15.309256-34.230808 34.058794s15.309256 34.058794 34.230808 34.058794l205.212834 0c18.921552 0 34.230808-15.309256 34.230808-34.058794C322.698471 622.497564 307.389216 607.188308 288.467663 607.188308L288.467663 607.188308zM280.210986 269.868638 83.254829 269.868638c-18.921552 0-34.230808 15.309256-34.230808 34.058794s15.309256 34.058794 34.230808 34.058794l196.956157 0c18.921552 0 34.230808-15.309256 34.230808-34.058794C314.441794 285.177893 299.132538 269.868638 280.210986 269.868638L280.210986 269.868638zM239.78767 438.958508l-156.532841 0c-18.921552 0-34.230808 15.309256-34.230808 34.230808 0 18.921552 15.309256 34.230808 34.230808 34.230808l156.532841 0c18.921552 0 34.230808-15.309256 34.230808-34.230808C273.846464 454.267764 258.537208 438.958508 239.78767 438.958508L239.78767 438.958508zM460.137746 94.758273 83.254829 94.758273c-18.921552 0-34.230808 15.309256-34.230808 34.230808s15.309256 34.230808 34.230808 34.230808l376.882916 0c18.921552 0 34.230808-15.309256 34.230808-34.230808C494.368554 110.067529 479.059298 94.758273 460.137746 94.758273L460.137746 94.758273z"  horiz-adv-x="1024" />

    
    <glyph glyph-name="leimu" unicode="&#59278;" d="M339.619 613.811h612.829c21.101 0 38.348 17.247 38.348 38.348s-17.063 38.348-38.348 38.348h-612.829c-21.101 0-38.348-17.247-38.348-38.348s17.247-38.348 38.348-38.348zM952.448 422.256h-612.829c-21.101 0-38.348-17.247-38.348-38.348s17.247-38.348 38.348-38.348h612.829c21.101 0 38.348 17.247 38.348 38.348s-17.247 38.348-38.348 38.348zM952.448 154.189h-612.829c-21.101 0-38.348-17.063-38.348-38.348s17.247-38.348 38.348-38.348h612.829c21.101 0 38.348 17.063 38.348 38.348s-17.247 38.348-38.348 38.348zM33.204 652.159c0-42.384 34.311-76.695 76.695-76.695s76.695 34.311 76.695 76.695-34.311 76.695-76.695 76.695-76.695-34.495-76.695-76.695zM33.204 384.092c0-42.384 34.311-76.695 76.695-76.695s76.695 34.311 76.695 76.695c0 42.384-34.311 76.695-76.695 76.695s-76.695-34.495-76.695-76.695zM33.204 115.841c0-42.384 34.311-76.695 76.695-76.695s76.695 34.311 76.695 76.695c0 42.384-34.311 76.695-76.695 76.695s-76.695-34.311-76.695-76.695z"  horiz-adv-x="1024" />

    
    <glyph glyph-name="wxbbiaowang" unicode="&#58905;" d="M900.75249 613.646284c-36.104289 0-65.428152-29.606295-65.428152-66.23247 0-11.192923 3.052522-21.620413 7.884574-30.905894-32.695656-23.393803-71.771627-36.760229-112.574938-36.760229-91.393523 0-167.723979 64.032362-189.120288 149.97985 21.396309 10.901281 36.238342 33.082466 36.238342 58.988486 0 36.557614-29.328979 66.231447-65.389266 66.231447-36.193317 0-65.433268-29.674856-65.433268-66.231447 0-25.904996 14.750959-48.087205 36.19434-58.988486-21.352307-85.947488-97.729835-149.97985-189.123358-149.97985-37.611619 0-73.806983 11.818163-105.016799 31.983435 6.512321 10.339486 10.432607 22.562878 10.432607 35.682687 0 36.626175-29.262464 66.23247-65.434292 66.23247-36.105313 0-65.410756-29.606295-65.410756-66.23247 0-34.719756 26.5374-62.934355 60.162218-65.693188l173.152619-429.800883L722.352357 51.919742l175.169555 429.621804c1.063215-0.089028 2.125407-0.361227 3.230578-0.361227 36.153408 0 65.435315 29.674856 65.435315 66.23247C966.188828 584.039989 936.905898 613.646284 900.75249 613.646284M693.20041 97.855958 331.16798 97.855958 188.780039 458.710562c32.540114-16.014742 68.423369-24.89704 105.216343-24.89704 96.887654 0 180.087565 58.539254 218.364333 142.221142C550.549479 492.351754 633.747343 433.813522 730.633974 433.813522c37.702694 0 74.16514 9.151427 107.081831 25.727964L693.20041 97.855958z"  horiz-adv-x="1024" />

    
    <glyph glyph-name="caidan" unicode="&#59280;" d="M108.065 613.811h807.686c21.101 0 38.348 17.247 38.348 38.348s-17.063 38.348-38.348 38.348h-807.686c-21.101 0-38.348-17.247-38.348-38.348s17.247-38.348 38.348-38.348zM915.751 422.256h-807.686c-21.101 0-38.348-17.247-38.348-38.348s17.247-38.348 38.348-38.348h807.686c21.101 0 38.348 17.247 38.348 38.348s-17.247 38.348-38.348 38.348zM915.751 154.189h-807.686c-21.101 0-38.348-17.063-38.348-38.348s17.247-38.348 38.348-38.348h807.686c21.101 0 38.348 17.063 38.348 38.348s-17.247 38.348-38.348 38.348z"  horiz-adv-x="1024" />

    
    <glyph glyph-name="zengsong" unicode="&#58919;" d="M738.092 530.654c-0.234 0.234-0.445 0.472-0.655 0.68-0.314 0.236-0.522 0.445-0.784 0.629-4.267 3.9-9.791 6.282-15.943 6.282-0.341 0-0.708-0.078-1.101-0.13-0.418 0.052-0.863 0.13-1.307 0.13h-37.15l25.079 40.344c7.279 11.78 3.902 26.337-7.62 32.516-11.544 6.178-26.83 1.622-34.19-10.106l-34.607-55.709c-1.388-2.252-2.068-4.661-2.669-7.043h-13.485c-0.627 2.382-1.282 4.792-2.671 7.043l-34.66 55.709c-7.303 11.728-22.619 16.284-34.136 10.106-11.573-6.179-14.925-20.735-7.594-32.516l25.054-40.344-48.303-0c-0.445 0-0.864-0.078-1.307-0.13-0.367 0.052-0.708 0.13-1.101 0.13-6.152 0-11.675-2.382-15.968-6.256-0.211-0.21-0.445-0.419-0.735-0.655-0.209-0.209-0.416-0.446-0.626-0.68-4.189-3.953-6.808-9.084-6.808-14.791 0-0.315 0.159-0.682 0.159-0.995-0.054-0.42-0.159-0.786-0.159-1.258v-126.656c0-0.734 0.159-1.441 0.21-2.147-0.051-0.63-0.21-1.178-0.21-1.809 0-12.33 11.887-22.356 26.546-22.356h206.952c14.659 0 26.517 10.025 26.517 22.356 0 0.631-0.102 1.178-0.181 1.809 0.079 0.706 0.181 1.413 0.181 2.147l-0 126.657c0 0.472-0.051 0.837-0.102 1.258 0.051 0.313 0.102 0.68 0.102 0.995-0.001 5.706-2.563 10.837-6.728 14.79zM590.701 405.383h-57.622v48.593c0-12.672 11.074-22.935 24.714-22.935 13.694 0 24.766 10.315 24.766 22.987 0 12.618-11.072 22.932-24.766 22.932-13.64 0-24.714-10.26-24.714-22.932v39.479h57.622v-88.123zM696.625 405.383h-57.622v88.123h57.622v-88.123zM720.527 313.756c0 12.354-11.885 22.356-26.572 22.356l-158.257 0.472c-12.933 0-23.665-7.804-26.023-18.119-1.936-3.507-3.090-7.485-3.090-11.807v-126.681c0-1.337 0.185-2.619 0.393-3.875-0.208-1.047-0.393-2.096-0.393-3.246 0-12.331 11.886-22.333 26.547-22.333l158.285-0.444c12.513 0 22.984 7.332 25.76 17.226 2.197 3.717 3.559 8.010 3.559 12.672l0 126.681c0 1.679-0.208 3.274-0.471 4.844 0.106 0.734 0.263 1.492 0.263 2.253zM672.46 194.876l-117.624 0.337-0 32.044 117.624-0.313 0-32.067zM672.46 271.71l-117.624 0.314-0 19.742 117.624-0.313 0-19.743zM668.011 431.092c13.665 0 24.765 10.212 24.765 22.908 0 12.672-11.1 22.96-24.765 22.96s-24.74-10.287-24.74-22.96c-0-12.695 11.074-22.908 24.74-22.908zM310.971 270.167c11.022 0 19.95 8.927 19.95 19.921l-0 256.353h82.884v-256.354c0-10.993 8.954-19.921 19.95-19.921 11.047 0 19.95 8.927 19.95 19.921l-0 272.691c0 0.627-0.315 1.177-0.367 1.779 0.052 0.628 0.367 1.205 0.367 1.833 0 10.996-8.903 19.924-19.95 19.924h-122.784c-11.021 0-19.947-8.927-19.947-19.924 0-0.627 0.313-1.204 0.366-1.833-0.053-0.602-0.366-1.151-0.366-1.779l0-272.691c0-10.993 8.926-19.92 19.947-19.92zM387.52 296.268c-0.496 0.547-1.204 0.837-1.78 1.36 4.921 20.785 6.387 35.815 6.572 38.064l0 172.030c0 10.969-8.928 19.922-19.925 19.922-11.049 0-19.975-8.954-19.975-19.922l0.079-170.248c-0.079-0.996-9.634-100.791-72.884-146.054-8.954-6.416-10.995-18.877-4.582-27.855 3.9-5.419 10.027-8.299 16.206-8.299 4.031 0 8.062 1.202 11.597 3.718 34.532 24.712 55.894 60.947 69.087 94.169l77.807-90.924c3.925-4.607 9.53-6.964 15.157-6.964 4.58 0 9.189 1.571 12.959 4.765 8.377 7.172 9.347 19.738 2.172 28.117l-92.492 108.123zM511.036 816.249c-239.49 0-434.32-194.829-434.32-434.269 0-239.495 194.829-434.322 434.32-434.322 239.44 0 434.271 194.828 434.271 434.322 0 239.439-194.829 434.269-434.271 434.269zM511.036 4.101c-208.389 0-377.877 169.489-377.877 377.879 0 208.338 169.487 377.877 377.877 377.877 208.338 0 377.877-169.539 377.877-377.877 0.001-208.39-169.539-377.879-377.877-377.879z"  horiz-adv-x="1024" />

    
    <glyph glyph-name="bell" unicode="&#58979;" d="M906.656 183.68c-37.408 45.536-88.672 109.984-88.672 175.744v209.408C817.984 749.248 683.04 896 510.624 896S204.32 749.216 204.32 568.832v-209.408c0-64.64-55.616-125.76-90.88-173.184-31.712-42.592-56.736-76.256-39.84-109.888 14.88-29.6 52.064-33.408 82.848-33.408h183.744a171.072 171.072 0 0 1 342.08 0h188.064c19.552 0 65.28 0 81.024 33.28 15.904 33.696-9.536 64.64-44.736 107.456zM511.2-60.8a103.936 103.936 0 0 0-103.936 103.744h207.872a103.904 103.904 0 0 0-103.936-103.744z m359.168 172.032H156.448c-4.896 0-9.024 0.16-12.384 0.384 6.592 10.24 16.32 23.296 24.192 33.92 39.072 52.512 104.352 126.624 104.352 213.888v209.408c0 142.784 103.264 258.912 238.016 258.912s239.072-116.128 239.072-258.912v-209.408c0-90.208 60.224-165.6 104.192-219.072 7.424-9.024 16.288-19.808 23.168-29.024a216.32 216.32 0 0 0-6.72-0.096z"  horiz-adv-x="1024" />

    
    <glyph glyph-name="zhifubao1" unicode="&#58882;" d="M215.04 331.87840000000006c-21.6064-2.1504-62.1568-11.6736-84.3264-31.232-66.56-57.7536-26.6752-163.3792 107.776-163.3792 78.1312 0 156.2624 49.8688 217.6 129.5872-87.04 42.496-161.024 72.9088-241.0496 65.024z m501.76-73.0112c124.4672-41.5744 152.6784-43.776 152.6784-43.776V662.016a138.24 138.24 0 0 1-138.24 138.24H143.36a138.24 138.24 0 0 1-138.24-138.24v-585.7792a138.24 138.24 0 0 1 138.24-138.24h587.7248a138.24 138.24 0 0 1 138.24 138.24V81.91999999999996s-224.8192 93.44-338.3808 147.8656c-76.1344-93.3888-174.3872-150.1184-276.48-150.1184-172.4416 0-231.0144 150.4768-149.4016 249.5488 17.8176 21.5552 48.128 42.1888 95.1296 53.76 73.5232 18.0224 190.5664-11.264 300.2368-47.36a599.7056 599.7056 0 0 1 48.6912 118.6304h-337.92V488.448h174.08v61.44H174.6432V583.6800000000001h211.0464V671.0784a14.4896 14.4896 0 0 0 14.9504 14.6944h85.1968V583.6800000000001h208.6912v-34.1504H485.8368v-61.44h170.3936a694.1696 694.1696 0 0 0-72.1408-181.7088c51.712-18.6368 98.0992-36.3008 132.7104-47.872zM2484.9408 693.2992h280.2688v-55.5008h100.096V703.5391999999999a1.4336 1.4336 0 0 0 0 0.4096 26.6752 26.6752 0 0 1-25.9072 26.9824h-162.048v51.712h-104.7552v-51.712h-187.7504v-93.1328h100.096zM1806.848 777.8816l-102.6048-242.7392h78.6944v-288.8192h86.1184V629.4528h-31.1808l64.8704 148.4288H1806.848zM2845.3376 365.77279999999996a16.3328 16.3328 0 0 1-15.36 11.7248h-83.456l24.1664-81.6128H2672.64V453.9392h192.4096V491.52H2672.64V565.9136h192.4096v37.632h-480.256v-37.632h192.4096V491.52h-192.3584v-37.632h192.4096v-158.0032h-192.4096v-37.632h491.9808l-0.4096 1.28h0.4096zM2027.0592 578.9184a19.968 19.968 0 0 1-17.7152 11.3152h-74.5472l58.0608-182.8352h88.1664zM2215.7312 773.4784h-89.4976V679.936h-220.5184v-37.632h220.5184v-336.128a15.36 15.36 0 0 0-14.4384-14.08h-45.4656v-38.9632h115.968a35.328 35.328 0 0 1 33.4336 34.8672V642.3552h36.352V679.936h-36.352zM1598.464 281.6a1060.2496 1060.2496 0 0 0-197.2224 94.0032c73.6768 54.528 138.24 128.5632 163.84 227.584h-171.7248v61.44h199.2704v38.4512h-199.2704V781.1072h-88.832a17.92 17.92 0 0 1-17.6128-18.2272v-59.8016H1089.024v-38.3488h197.888v-61.44h-167.0144v-38.3488h332.8s-18.432-71.9872-109.6704-149.3504C1261.1072 477.3376 1233.92 526.6432 1233.92 526.6432h-89.3952c36.096-62.5664 87.3984-112.64 142.6432-152.4736-50.7392-32.9728-116.5824-64.768-201.6768-90.2144v-46.08a900.4032 900.4032 0 0 1 258.2016 99.5328 924.3136 924.3136 0 0 1 254.7712-99.328zM1184.8192 167.67999999999995l-81.92-222.7712h41.6768l15.36 44.8512h81.92l14.848-44.8512h41.6768l-81.92 222.7712z m-14.848-149.8112l31.9488 92.16 30.72-92.16zM1521.408 167.67999999999995h-40.0384v-222.7712h134.8608v30.3104h-94.8224v192.4608zM1814.4256 167.67999999999995h40.0896v-222.7712h-40.0896zM2154.7008 167.67999999999995h-86.5792v-222.7712h40.0384V30.720000000000027h46.5408c43.2128 0 73.3696 28.2112 73.3696 68.5568s-30.1568 68.4032-73.3696 68.4032z m-2.2528-106.5472h-44.288v76.2368h44.288c22.2208 0 35.5328-19.456 35.5328-38.2464s-12.4416-37.9904-35.4816-37.9904zM2457.2416 167.67999999999995l-81.92-222.7712h41.6768l15.36 44.8512h81.92l14.848-44.8512h41.6768l-81.92 222.7712zM2442.24 17.868799999999965l31.9488 92.16 30.72-92.16zM2794.3424 167.67999999999995l-43.7248-94.9248-44.3904 94.9248h-43.264l67.4304-131.2768v-91.4944h39.7824v91.4944l0.256 0.512 67.2256 130.7648h-43.3152z"  horiz-adv-x="2899" />

    
    <glyph glyph-name="zhifubao" unicode="&#58966;" d="M2680.750000000001 208.37727304687508l-40.41818173828125-87.48409130859375-41.03181826171875 87.48409130859375h-40.05l62.38636347656251-120.9886365234375v-84.35454521484375h36.777273046874996v84.35454521484375l0.24545478515625 0.47045478515625 62.140908691406246 120.51818173828123h-40.02954521484375z m-295.93636347656246-52.9159095703125l28.49318173828125-85.15227216796875h-58.02954521484375l29.5363634765625 85.15227216796875z m37.247726953124996-111.06818173828125l13.74545478515625-41.3590904296875h38.5363634765625l-75.8863634765625 205.36363564453129h-29.454545214843748l-75.57954609375-205.36363564453129h38.556818261718746l14.318181738281249 41.3590904296875h75.7636365234375z m-287.5295452148437 65.802273046875h-40.95v70.24090869140625h40.95c20.536363476562503 0 32.829545214843755-17.91818173828125 32.829545214843755-35.263636523437505 0-16.95681826171875-11.51590869140625-34.977273046875-32.829545214843755-34.97727216796875z m2.06590869140625 98.18181826171876h-80.07954521484376v-205.34318173828126h37.0636365234375v78.9340904296875h43.01590869140625c39.947726953125 0 67.86818173828125 25.977273046875 67.86818173828125 63.20454521484376 0 37.227273046875-27.92045478515625 63.20454521484376-67.86818173828125 63.20454609375zM1869.2159086914057 3.054545214843756h37.08409130859375V208.37727304687508h-37.08409130859375v-205.32272783203126zM1608.5636365234373 208.37727304687508v-205.34318173828126h124.71136347656251v27.9613634765625h-87.66818173828125v177.38181826171876h-37.04318173828125z m-211.09090957031248-52.9159095703125l28.49318173828125-85.15227216796875h-58.02954521484375l29.5363634765625 85.15227216796875z m37.24772783203125-111.06818173828125l13.745453906249999-41.3590904296875h38.5159095703125L1411.136363476562 208.3977269531249h-29.454545214843748l-75.6-205.36363564453129h38.5363634765625l14.359091308593749 41.3590904296875h75.76363564453123z m260.8772721679687 565.4045452148437h-158.93181826171875V666.5795452148438h184.29545478515627V701.9454547851562h-184.29545478515627V773.8636365234374H1454.4999999999998l-0.04090869140625-0.02045478515625a16.527273046875 16.527273046875 0 0 1-16.26136435546875-16.772726953124998v-55.14545478515625h-183.00681826171876v-35.3863634765625h183.00681826171876v-56.7613634765625H1283.7045452148432v-35.34545478515625h307.677273046875s-17.0386365234375-66.33409130859374-101.45454521484376-137.65909130859376c-75.6 57.06818173828125-100.88181826171875 102.49772695312501-100.88181826171875 102.49772783203125h-82.53409130859374c33.402273046875-57.68181826171875 80.85681826171876-103.8886365234375 131.93181826171877-140.52272783203125-46.922726953125-30.39545478515625-107.79545478515625-59.72727304687499-186.50454521484374-83.14772695312499v-42.340908691406256s121.43863652343752 22.827273046875 238.78636347656249 91.73863564453124c117.53181826171874-68.35909130859376 235.575-91.7386365234375 235.575-91.73863564453124v40.09090869140625c-75.5386365234375 27.40909130859375-135.40909130859373 57.5386365234375-182.41363652343748 86.625 68.11363652343749 50.25681826171875 127.77954521484374 118.5136365234375 151.6909095703125 209.80227304687497zM2211.93181826172 766.8068182617187h-82.7386365234375V680.5909086914063h-203.952273046875v-34.670453906249996h203.93181826171875v-309.82500000000005a14.277273046875 14.277273046875 0 0 0-13.35681826171875-12.9886365234375h-42.034090429687495v-35.91818173828125h107.24318173828125a32.60454521484375 32.60454521484375 0 0 1 30.906818261718747 32.15454521484375V645.9409086914062h33.60681826171875V680.6113634765625H2211.93181826172V766.8068182617187z m-174.477273046875-179.34545478515625a18.45 18.45 0 0 1-16.363636523437503 10.43181826171875h-68.9318173828125l53.652272167968746-168.54545478515624h81.57272783203125l-49.929546093750005 158.1136365234375z m719.5909095703125-294.34090869140624l-29.0863634765625 97.89545390625a15.09545478515625 15.09545478515625 0 0 1-14.338636523437499 10.77954609375h-77.07272783203126l22.33636435546875-75.1909095703125h-90.61363652343749v145.65681826171874h177.95454521484376v34.7113634765625h-177.95454521484376v68.54318173828125h177.95454521484376v34.67045478515625h-444.17045478515627v-34.67045478515625h177.95454609374997v-68.54318173828125h-177.95454609374997v-34.7113634765625h177.95454609374997v-145.65681826171874h-177.95454609374997v-34.7113634765625H2757.0454547851573l-0.36818173828124995 1.1863634765625h0.36818173828124995v0.02045478515625zM1833.8295452148432 770.8568182617187l-94.9090904296875-223.75227304687502h72.797726953125v-266.25681826171876h79.60909130859375V634.0363634765624h-28.8409095703125l59.99318173828125 136.8409095703125h-88.65z m560.8022730468749-77.972726953125h259.2204547851562v-51.13636435546874h92.57727216796876V702.3545452148437c-0.04090869140625 0.1636365234375-0.04090869140625 0.20454521484375-0.04090869140625 0.36818173828124995 0 13.622726953125-10.71818173828125 24.627273046875004-23.97272783203125 24.87272783203125h-149.82954521484376V775.2954547851563h-96.872726953125V727.6363634765625h-173.65909130859376v-85.847726953125h92.57727304687499v51.1363634765625zM945.7954547851564 268.88181826171865c130.39772695312502-43.38409130859375 159.95454521484376-45.7363634765625 159.95454521484376-45.7363634765625V689.8159086914063C1105.7499999999998 769.4659086914062 1040.9090913085938 834 960.7681817382814 834H345.2704547851562C265.1500000000001 834 200.22727304687507 769.4659086914062 200.22727304687507 689.8159086914063v-611.6522721679687C200.22727304687507-1.4454547851562438 265.1295452148438-66 345.2909086914062-66h615.477273046875c80.1 0 144.98181826171873 64.55454521484376 144.98181826171873 144.1636365234375v5.9113634765625s-235.53409130859376 97.56818173828124-354.477273046875 154.43181826171875c-79.752273046875-97.52727304687501-182.65909130859376-156.7636365234375-289.4931817382813-156.7636365234375-180.65454521484375 0-242.0181817382812 157.152273046875-156.47727216796875 260.59090957031253 18.675 22.520454785156254 50.379545214843745 44.07954521484375 99.65454521484374 56.147726953125 77.0113634765625 18.81818173828125 199.6363634765625-11.74090869140625 314.5295452148438-49.4386365234375a624.7431817382812 624.7431817382812 0 0 1 51.0136365234375 123.89318173828126H416.3704547851562v35.67272783203125h182.57727216796874v63.87954521484376H377.81363652343737V608.1818182617187h221.1340904296875V699.327273046875s0 15.361363476562499 15.66818173828125 15.361363476562499h89.2431826171875v-106.527273046875h218.6590904296875v-35.67272695312501h-218.6590904296875v-63.87954521484376h178.46590869140624c-17.059091308593754-69.54545478515625-43.01590869140625-133.56818173828125-75.55909130859375-189.75681826171873 54.14318173828125-19.452273046875 102.80454521484376-37.902273046874996 139.00909130859375-49.97045478515625zM420.3181817382811 345.13636347656256c-22.622726953125-2.25-65.0863634765625-12.19090869140625-88.30227304687499-32.60454521484375-69.627273046875-60.300000000000004-27.98181826171875-170.6113634765625 112.90909130859374-170.6113634765625 81.85909130859375 0 163.697726953125 52.056818261718746 227.96590869140624 135.34772695312498-91.39090869140625 44.34545478515625-168.872726953125 76.09090869140626-252.55227216796874 67.86818173828125z"  horiz-adv-x="2932" />

    
    <glyph glyph-name="zhanghaoguanli" unicode="&#58887;" d="M1033.86112 156.34887111111118v-72.81777777777778l-65.536-14.563555555555556-21.845333333333333-43.690666666666665 36.40888888888889-58.254222222222225-50.97244444444444-50.97244444444444-58.254222222222225 36.40888888888889-43.690666666666665-21.845333333333333-14.563555555555556-65.536h-72.81777777777778l-14.563555555555556 65.536-43.690666666666665 21.845333333333333-58.254222222222225-36.40888888888889-50.97244444444444 50.97244444444444 36.40888888888889 58.254222222222225-21.845333333333333 43.690666666666665-65.536 14.563555555555556v72.81777777777778l65.536 14.563555555555556 21.845333333333333 43.690666666666665-36.40888888888889 58.254222222222225 50.97244444444444 50.97244444444444 58.254222222222225-36.40888888888889 43.690666666666665 21.845333333333333 14.563555555555556 65.536h72.81777777777778l14.563555555555556-65.536 43.690666666666665-21.845333333333333 58.254222222222225 36.40888888888889 50.97244444444444-50.97244444444444-36.40888888888889-58.254222222222225 21.845333333333333-43.690666666666665 65.536-14.563555555555556zM778.9988977777778 251.01198222222217c-72.81777777777778 0-123.79022222222221-58.254222222222225-123.79022222222221-123.79022222222221 0-72.81777777777778 58.254222222222225-131.072 123.79022222222221-131.072 72.81777777777778 0 131.072 58.254222222222225 131.072 131.072-7.281777777777778 65.536-58.254222222222225 116.50844444444445-131.072 123.79022222222221zM451.3188977777777 301.98442666666665c-203.88977777777777 0-364.08888888888885-160.1991111111111-364.08888888888885-364.08888888888885h-72.81777777777778c0 189.3262222222222 116.50844444444445 349.5253333333333 283.9893333333333 407.77955555555553-80.09955555555555 50.97244444444444-138.35377777777776 145.63555555555556-138.35377777777776 247.58044444444442 0 160.1991111111111 131.072 291.2711111111111 291.2711111111111 291.2711111111111s291.2711111111111-131.072 291.2711111111111-291.2711111111111-131.072-291.2711111111111-291.2711111111111-291.2711111111111zM451.3188977777777 811.7088711111111c-123.79022222222221 0-218.45333333333335-94.6631111111111-218.45333333333335-218.45333333333335s94.6631111111111-218.45333333333335 218.45333333333335-218.45333333333335 218.45333333333335 94.6631111111111 218.45333333333335 218.45333333333335-94.6631111111111 218.45333333333335-218.45333333333335 218.45333333333335z"  horiz-adv-x="1024" />

    
    <glyph glyph-name="guide" unicode="&#58913;" d="M567.186 703.772c12.187 13.586 19.64 31.734 19.64 51.68 0 42.113-33.194 76.246-74.124 76.246s-74.124-34.131-74.124-76.246c0-19.854 7.382-37.929 19.468-51.495-182.558-26.796-322.879-187.556-322.879-381.856 0-213.065 168.714-385.798 376.831-385.798 208.119 0 376.831 172.733 376.831 385.798 0 193.861-139.688 354.331-321.645 381.671zM513.031 800.214c23.911 0 43.322-19.879 43.322-44.411 0-24.532-19.411-44.423-43.322-44.423s-43.274 19.891-43.274 44.423c0 24.532 19.362 44.411 43.274 44.411zM534.176-18.16v66.388h-44.352v-66.388c-165.97 11.038-298.646 145.029-309.574 312.624h65.753v44.774h-65.753c10.928 167.594 143.604 301.586 309.574 312.624v-66.4h44.352v66.4c165.971-11.038 298.646-145.030 309.573-312.624h-65.752v-44.774h65.752c-10.927-167.595-143.602-301.586-309.573-312.624zM325.119 127.286l261.098 120.011 113.037 268.376-258.94-117.772-115.195-270.615zM471.467 365.552c22.973 23.816 60.177 23.816 83.15 0 22.973-23.841 22.973-62.508 0-86.35-22.973-23.84-60.177-23.84-83.15 0-22.949 23.842-22.949 62.509 0 86.35z"  horiz-adv-x="1024" />

    
    <glyph glyph-name="logo-nmh" unicode="&#59209;" d="M316.384626 397.11496v-167.949511l-62.975648-18.181405-107.163001 162.436929v-144.255524l-49.19058-18.181405v243.474771c18.596836-8.366409 65.973972-28.24566 125.037348-42.471444l41.806756-61.964165v53.36656c17.050712-2.886339 34.643289-5.100764 52.485125-6.274806zM776.201139 290.067557l85.484755 24.799393v-103.882906l68.524354 19.268749V452.269677c-15.009684-6.686624-37.7247-15.605736-68.524354-24.625996v-69.124019l-85.484755-24.799393v73.961074a1052.130062 1052.130062 0 0 0-68.759162-10.107604v-186.58247l68.759162 19.268749v59.807539zM1018.808925 583.361473c-16.996525-111.877234-187.402494-157.271141-322.905078-175.694579l-56.986224-191.564024-32.656448-11.650116 15.797196 144.446983-91.488629-206.2811H497.266668l-91.492241 206.2811 11.245523-144.446983-32.645611 10.385762-58.619046 193.153497c-135.116053 18.625735-303.661616 64.135241-320.564218 175.36946-18.564324 122.154622 127.399884 105.988958 127.399883 105.988958s-106.501924-16.082578-57.629238-84.469659c26.042072-36.442284 123.075794-61.24529 212.66428-76.861863 61.624596-10.739781 119.680102-17.130185 148.72411-19.9804h29.249918l48.316371-142.687725 48.31637 142.687725h25.417121c71.277032 6.993682 317.432233 35.333265 361.38839 96.845875 48.869074 68.390694-57.629238 84.469659-57.629238 84.46966s145.960595 16.162052 127.399883-105.992571zM561.528344 198.752326l-11.664565-25.240111a43.566013 43.566013 0 0 0 8.630116-26.074584c0-24.141929-19.64083-43.779147-43.779147-43.779148-24.141929 0-43.779147 19.637218-43.779147 43.779148 0 9.106959 2.792415 17.56729 7.568059 24.579034 0.245646 0.361244-11.971623 25.449632-11.971623 25.449632-13.127603-12.650761-21.306165-30.402286-21.306164-50.032279 0-38.313527 31.171735-69.488875 69.488875-69.488875s69.488875 31.175348 69.488875 69.488875c0.003612 20.305519-8.745715 38.602522-22.675279 51.318308z"  horiz-adv-x="1024" />

    
    <glyph glyph-name="shaixuan" unicode="&#59211;" d="M786.348 694.942c15.457 28.05 16.236 62.028 2.041 90.928C774.243 814.744 748.333 832 719.119 832h-501.23c-29.167 0-55.076-17.256-69.271-46.131-14.146-28.9-13.368-62.879 2.091-90.928 0.583-1.142 1.312-2.211 2.041-3.208l164.646-220.475c10.305-13.78 15.993-31.306 15.993-49.389v-299.785c0-15.261 10.938-27.661 24.403-27.661 13.514 0 24.451 12.4 24.451 27.661V421.868c0 31.111-9.772 61.298-27.514 85.044L191.347 725.663c-5.153 10.452-5.202 22.8 0 33.397 5.445 11.058 15.361 17.67 26.542 17.67H719.12c11.228 0 21.146-6.611 26.59-17.67 5.201-10.597 5.153-22.944 0-33.397l-163.383-218.75c-17.743-23.748-27.513-53.934-27.513-85.044v-458.208c0-15.266 10.937-27.661 24.45-27.661 13.466 0 24.403 12.394 24.403 27.661V421.868c0 18.083 5.686 35.608 15.944 49.389l164.695 220.476c0.73 0.997 1.409 2.092 2.042 3.209z m-122.84-271.761c0-15.266 10.938-27.661 24.401-27.661h173.155c13.465 0 24.401 12.395 24.401 27.661 0 15.262-10.937 27.611-24.401 27.611H687.909c-13.463 0.001-24.401-12.348-24.401-27.611z m197.557-276.547H687.909c-13.464 0-24.401-12.35-24.401-27.612 0-15.265 10.938-27.61 24.401-27.61h173.155c13.465 0 24.401 12.346 24.401 27.61 0.001 15.262-10.936 27.612-24.4 27.612z m0 152.055H687.909c-13.464 0-24.401-12.35-24.401-27.612 0-15.265 10.938-27.61 24.401-27.61h173.155c13.465 0 24.401 12.346 24.401 27.61 0.001 15.263-10.936 27.612-24.4 27.612z"  horiz-adv-x="1024" />

    
    <glyph glyph-name="arrow-right" unicode="&#59212;" d="M382.63 697.786l314.547-314.547-314.547-314.546c-12.175-12.175-32.469-12.175-46.675 0-12.175 12.175-12.175 32.469 0 44.646l269.902 269.902-269.902 269.902c-12.175 12.175-12.175 32.469 0 44.646 12.175 14.206 32.469 14.206 46.675 0.001z"  horiz-adv-x="1024" />

    
    <glyph glyph-name="addcollect" unicode="&#59213;" d="M862 201.998h-98.001v97.358c0 7.734-6.266 14-14 14h-27.997c-7.734 0-14-6.266-14-14v-97.359h-98.002c-7.731 0-14-6.266-14-14v-27.997c0-7.734 6.269-14 14-14h98.001v-98.644c0-7.731 6.266-14 14-14h27.997c7.734 0 14 6.269 14 14v98.644h98.002c7.734 0 14 6.266 14 14v27.997c0 7.734-6.267 14.001-14 14.001zM702.4 789.999c-72.797 0-141.867-30.287-190.396-85.179-48.536 53.001-117.606 85.179-190.404 85.179-141.867 0-257.6-117.356-257.6-261.206 0-323.663 418.132-539.444 434.932-547.010 3.735-1.893 9.338-3.782 13.070-3.782 3.729 0 9.332 1.89 13.064 3.782 5.074 2.285 46.765 23.571 102.483 61.080-13.606 18.197-28.388 33.866-43.043 41.774-31.86-21.13-57.854-36.147-72.504-44.177-69.067 37.851-390.134 230.916-390.134 488.334 0 111.669 89.6 202.532 199.732 202.532 67.202 0 128.797-34.076 166.135-90.863 11.198-17.032 37.332-17.032 48.529 0 37.338 56.787 98.935 90.863 166.135 90.863 110.138 0 199.735-90.863 199.735-202.532 0-82.593-33.054-158.559-80.23-224.901 13.716-11.324 32.436-20.794 56.705-20.942 48.132 71.868 81.391 154.566 81.391 245.844 0 143.849-115.733 261.204-257.6 261.204z"  horiz-adv-x="1024" />

    
    <glyph glyph-name="checkbox_r" unicode="&#59214;" d="M960 384c0-247.424-200.576-448-448-448S64 136.576 64 384 264.576 832 512 832s448-200.576 448-448zM512 776c-216.496 0-392-175.504-392-392s175.504-392 392-392 392 175.504 392 392-175.504 392-392 392z"  horiz-adv-x="1024" />

    
    <glyph glyph-name="checkbox_r_c" unicode="&#59215;" d="M960 384c0-247.424-200.576-448-448-448S64 136.576 64 384 264.576 832 512 832s448-200.576 448-448zM512 776c-216.496 0-392-175.504-392-392s175.504-392 392-392 392 175.504 392 392-175.504 392-392 392z m240-392c0-132.548-107.452-240-240-240S272 251.452 272 384s107.452 240 240 240 240-107.452 240-240z"  horiz-adv-x="1024" />

    
    <glyph glyph-name="calendar" unicode="&#59216;" d="M890.063 747.746h-43.952v13.49c0 38.685-30.889 70.183-69.333 70.183h-1.034c-38.45 0-70.251-31.498-70.251-70.183v-13.49H318.506v13.49c0 38.685-30.743 70.183-69.192 70.183h-1.063c-38.449 0-70.362-31.498-70.362-70.183v-13.49H135.06c-38.45 0-71.059-31.068-71.059-69.699v-672.165c0-38.684 32.609-69.301 71.059-69.301h755.004c38.448 0 69.937 30.617 69.937 69.301V678.046c-0.002 38.631-31.49 69.7-69.938 69.7z m-156.679 13.49c0 23.25 19.204 42.292 42.359 42.292h1.034c23.122 0 41.441-19.043 41.441-42.292v-125.06c0-23.247-18.32-41.831-41.441-41.831h-1.034c-23.155 0-42.359 18.584-42.359 41.831v125.06z m-527.606 0c0 23.25 19.317 42.292 42.476 42.292h1.059c23.095 0 41.301-19.043 41.301-42.292v-125.06c0-23.247-18.206-41.831-41.301-41.831h-1.059c-23.16 0-42.476 18.584-42.476 41.831v125.06z m684.285-768.873H135.058c-7.582 0-14.115 5.957-14.115 13.519v494.33h783.274v-494.331c0-7.561-6.572-13.518-14.154-13.518zM223.21 399.108h128.996v-62.755H223.21v62.755z m225.453 0h127.834v-62.755H448.663v62.755z m224.29 0h126.672v-62.755H672.953v62.755zM223.21 270.112h128.996v-61.593H223.21v61.593z m225.453 0h127.834v-61.593H448.663v61.593z m224.29 0h126.672v-61.593H672.953v61.593zM223.21 144.602h128.996v-65.079H223.21v65.079z m225.453 0h127.834v-65.079H448.663v65.079z m224.29 0h126.672v-65.079H672.953v65.079z"  horiz-adv-x="1024" />

    
    <glyph glyph-name="dedent" unicode="&#59218;" d="M220.729 547.84v-327.68c0-4.951-1.796-9.223-5.389-12.816s-7.865-5.389-12.816-5.389c-5.292 0-9.661 1.699-13.107 5.098l-163.84 163.84c-3.398 3.398-5.098 7.767-5.098 13.107s1.699 9.709 5.098 13.107l163.84 163.84c3.398 3.398 7.767 5.098 13.107 5.098 4.951 0 9.223-1.796 12.816-5.389s5.389-7.865 5.389-12.816zM1021.725 110.933v-109.227c0-4.951-1.796-9.223-5.389-12.816s-7.865-5.389-12.816-5.389h-983.040c-4.951 0-9.223 1.796-12.816 5.389s-5.389 7.865-5.389 12.816v109.227c0 4.951 1.796 9.223 5.389 12.816s7.865 5.389 12.816 5.389h983.040c4.951 0 9.223-1.796 12.816-5.389s5.389-7.865 5.389-12.816zM1021.725 329.387v-109.227c0-4.951-1.796-9.223-5.389-12.816s-7.865-5.389-12.816-5.389h-618.951c-4.951 0-9.223 1.796-12.816 5.389s-5.389 7.865-5.389 12.816v109.227c0 4.951 1.796 9.223 5.389 12.816s7.865 5.389 12.816 5.389h618.951c4.951 0 9.223-1.796 12.816-5.389s5.389-7.865 5.389-12.816zM1021.725 547.84v-109.227c0-4.951-1.796-9.223-5.389-12.816s-7.865-5.389-12.816-5.389h-618.951c-4.951 0-9.223 1.796-12.816 5.389s-5.389 7.865-5.389 12.816v109.227c0 4.951 1.796 9.223 5.389 12.816s7.865 5.389 12.816 5.389h618.951c4.951 0 9.223-1.796 12.816-5.389s5.389-7.865 5.389-12.816zM1021.725 766.293v-109.227c0-4.951-1.796-9.223-5.389-12.816s-7.865-5.389-12.816-5.389h-983.040c-4.951 0-9.223 1.796-12.816 5.389s-5.389 7.865-5.389 12.816v109.227c0 4.951 1.796 9.223 5.389 12.816s7.865 5.389 12.816 5.389h983.040c4.951 0 9.223-1.796 12.816-5.389s5.389-7.865 5.389-12.816z"  horiz-adv-x="1024" />

    
    <glyph glyph-name="classify-wish" unicode="&#59219;" d="M463.136 375.6c65.613-135.268 222.814-188.847 351.119-119.674S993.381 490.833 927.768 626.1 704.954 814.948 576.649 745.774 397.523 510.868 463.136 375.6z m134.271 327.38c105.887 57.088 235.621 12.869 289.769-98.764 54.149-111.633 12.207-248.407-93.68-305.495-105.887-57.088-235.621-12.87-289.769 98.763-54.149 111.634-12.207 248.409 93.68 305.496zM956.449 45.634l-73.728 151.998c-8.126 16.753-27.595 23.389-43.487 14.822l-7.5-4.044c-15.891-8.567-22.185-29.094-14.059-45.847l73.728-151.998c8.126-16.753 27.596-23.389 43.487-14.822l7.5 4.043c15.891 8.569 22.186 29.095 14.059 45.848zM89.66 720.606h352.157c14.171 0 25.659 12.111 25.659 27.051 0 14.94-11.488 27.051-25.659 27.051H89.66c-14.171 0-25.659-12.111-25.659-27.051 0-14.939 11.488-27.051 25.659-27.051zM89.66 478.022h260.724c14.171 0 25.659 12.111 25.659 27.051s-11.488 27.051-25.659 27.051H89.66c-14.171 0-25.659-12.111-25.659-27.051 0-14.939 11.488-27.051 25.659-27.051zM89.66 235.438h336.325c14.171 0 25.659 12.111 25.659 27.051s-11.488 27.051-25.659 27.051H89.66c-14.171 0-25.659-12.111-25.659-27.051-0.001-14.938 11.488-27.051 25.659-27.051zM781.803 44.763H87.577C74.555 44.763 64 33.635 64 19.906s10.555-24.856 23.577-24.856h694.226c13.022 0 23.577 11.128 23.577 24.856 0 13.729-10.557 24.857-23.577 24.857z"  horiz-adv-x="1024" />

    
    <glyph glyph-name="home" unicode="&#59220;" d="M832.111 327.272v-279.358c0-10.082-3.521-18.81-10.563-26.185-7.042-7.375-15.376-11.062-25.003-11.063H583.15V234.153H440.886v-223.486H227.49c-9.627 0-17.961 3.688-25.003 11.063-7.042 7.375-10.563 16.103-10.563 26.185V327.272c0 0.397 0.095 0.981 0.285 1.751 0.19 0.77 0.285 1.353 0.285 1.751L512.019 606.63l319.525-275.856c0.378-0.771 0.567-1.938 0.567-3.502z m123.912 40.153l-34.463-43.058c-2.964-3.501-6.852-5.637-11.666-6.407h-1.672c-4.813 0-8.702 1.353-11.666 4.06L511.982 657.845 127.408 322.02c-4.434-3.104-8.88-4.457-13.337-4.06-4.813 0.77-8.702 2.905-11.666 6.407l-34.463 43.058c-2.964 3.874-4.256 8.43-3.877 13.67 0.379 5.239 2.418 9.411 6.117 12.515L469.73 742.211c11.855 10.082 25.939 15.123 42.252 15.123 16.313 0 30.397-5.041 42.252-15.123l135.613-118.708V736.996c0 5.438 1.672 9.895 5.015 13.372 3.343 3.476 7.599 5.227 12.768 5.252h106.698c5.193 0 9.449-1.751 12.768-5.252 3.32-3.501 4.991-7.959 5.015-13.372v-237.454L953.818 393.61c3.699-3.104 5.738-7.276 6.117-12.515 0.379-5.24-0.913-9.796-3.877-13.67h-0.035z"  horiz-adv-x="1024" />

    
    <glyph glyph-name="indent" unicode="&#59221;" d="M20.48 547.84c0 4.951 1.796 9.223 5.389 12.816s7.865 5.389 12.816 5.389c5.34 0 9.709-1.699 13.107-5.098l163.84-163.84c3.398-3.398 5.098-7.767 5.098-13.107s-1.699-9.709-5.098-13.107l-163.84-163.84c-3.446-3.398-7.815-5.098-13.107-5.098-4.951 0-9.223 1.796-12.816 5.389s-5.389 7.865-5.389 12.816v327.68zM1021.725 110.933v-109.227c0-4.951-1.796-9.223-5.389-12.816s-7.865-5.389-12.816-5.389h-983.040c-4.951 0-9.223 1.796-12.816 5.389s-5.389 7.865-5.389 12.816v109.227c0 4.951 1.796 9.223 5.389 12.816s7.865 5.389 12.816 5.389h983.040c4.951 0 9.223-1.796 12.816-5.389s5.389-7.865 5.389-12.816zM1021.725 329.387v-109.227c0-4.951-1.796-9.223-5.389-12.816s-7.865-5.389-12.816-5.389h-618.951c-4.951 0-9.223 1.796-12.816 5.389s-5.389 7.865-5.389 12.816v109.227c0 4.951 1.796 9.223 5.389 12.816s7.865 5.389 12.816 5.389h618.951c4.951 0 9.223-1.796 12.816-5.389s5.389-7.865 5.389-12.816zM1021.725 547.84v-109.227c0-4.951-1.796-9.223-5.389-12.816s-7.865-5.389-12.816-5.389h-618.951c-4.951 0-9.223 1.796-12.816 5.389s-5.389 7.865-5.389 12.816v109.227c0 4.951 1.796 9.223 5.389 12.816s7.865 5.389 12.816 5.389h618.951c4.951 0 9.223-1.796 12.816-5.389s5.389-7.865 5.389-12.816zM1021.725 766.293v-109.227c0-4.951-1.796-9.223-5.389-12.816s-7.865-5.389-12.816-5.389h-983.040c-4.951 0-9.223 1.796-12.816 5.389s-5.389 7.865-5.389 12.816v109.227c0 4.951 1.796 9.223 5.389 12.816s7.865 5.389 12.816 5.389h983.040c4.951 0 9.223-1.796 12.816-5.389s5.389-7.865 5.389-12.816z"  horiz-adv-x="1024" />

    
    <glyph glyph-name="search" unicode="&#59222;" d="M951.505-55.64c-11.326-11.147-29.676-11.147-41.014 0L678.255 172.899c-64.809-51.746-147.318-82.857-237.266-82.857C232.783 90.054 64 256.137 64 461.027S232.783 832 440.978 832s376.978-166.094 376.978-370.973c0-95.796-37.216-182.831-97.79-248.648l231.34-227.665a28.21 28.21 0 0 0-0.001-40.354zM440.978 774.932c-176.177 0-318.992-140.54-318.992-313.905s142.815-313.905 318.992-313.905c176.166 0 318.98 140.54 318.98 313.905 0.011 173.365-142.815 313.905-318.98 313.905z"  horiz-adv-x="1024" />

    
    <glyph glyph-name="quanjufenxi" unicode="&#59224;" d="M901.548 803.998H122.452C90.163 803.998 64 777.835 64 745.546V200.16c0-32.289 26.163-58.452 58.452-58.452h779.095c32.289 0 58.452 26.163 58.452 58.452V745.546c0.001 32.289-26.162 58.452-58.451 58.452z m2.495-585.944c0-10.832-8.809-19.635-19.55-19.635H139.598c-10.832 0-19.55 8.809-19.55 19.635V727.747c0 10.832 8.718 19.635 19.55 19.635h744.899c10.832 0 19.55-8.809 19.55-19.635l-0.004-509.693zM667.839 100.413c0 10.763-8.753 19.426-19.51 19.426H375.677c-10.763 0-19.51-8.753-19.51-19.426v-79.963H161.389v-56.447h701.222v56.452H667.839v79.958z m77.174 198.278L620.15 430.201l-9.01 11.637-11.11-11.637-75.51-79.536-132.743 139.646-9.01 9.974-11.11-9.974-171.326-180.336 20.21-21.263 161.173 169.752 132.652-139.736 10.763-13.826 9.453 13.826 75.51 79.536 132.562-139.652 18.99-17.59 4.99 24.589 57.052 240.451-27.737 7.263-50.936-214.634zM462.824 561.273s56.873-124.426 56.873-153.473c0 0 27.037 101.763 50.136 145.252 9.71 12.163 15.837 27.653 15.837 44.8 0 38.589-29.753 69.91-66.326 69.91-36.663 0-66.326-31.326-66.326-69.91 0-13.389 3.763-25.81 9.974-36.489l-0.168-0.09z"  horiz-adv-x="1024" />

    
    <glyph glyph-name="chanpinrexiao" unicode="&#59223;" d="M465.3312 642.23232c-48.83968 32.9472-51.26144 95.93856-16.85504 132.54144a86.5792 86.5792 0 0 0 125.93152 0.67584c34.8672-36.3776 33.01888-99.66592-16.19968-133.22752l187.44832-206.34624c2.39104 1.52064 4.5568 2.83648 6.66112 4.23424 57.84576 38.23104 115.70688 76.4416 173.50144 114.75456 8.28928 5.49376 16.9472 7.84384 26.60864 4.91008 13.94176-4.23424 22.33856-17.96096 19.97824-32.68608-14.12096-88.09984-28.30848-176.18944-42.40384-264.28928-12.96384-81.02912-25.84576-162.06336-38.76864-243.09248-1.44896-9.04704-3.01568-18.0736-4.46464-27.11552-2.80576-17.63328-13.57824-26.83904-31.54432-26.84928-28.71296-0.01536-57.42592-0.00512-86.13376-0.00512H169.71776c-20.15232 0-30.23872 8.99584-33.37216 28.9792-7.168 45.64992-14.46912 91.27424-21.89312 136.8832-3.33824 20.52096 8.97024 35.79904 29.87008 36.3008 9.36448 0.22528 18.7392 0.07168 28.1088 0.06656 188.42112-0.05632 376.84224-0.11776 565.26336-0.25088 4.54144-0.00512 9.26208-0.29184 13.57824-1.536 12.78464-3.69664 21.5296-17.1008 20.03456-29.83936-1.6896-14.3616-12.05248-25.27232-26.02496-25.98912-13.32224-0.68096-26.7008-0.256-40.05888-0.25088l-522.19392 0.30208h-6.73792l13.89568-87.09632h6.71232c209.95584 0 419.9168 0.01536 629.86752-0.09728 4.72576-0.00512 6.74816 0.78848 7.59296 6.14912 13.70624 87.15264 27.70432 174.26944 41.67168 261.38624 9.3696 58.40384 18.78016 116.80768 28.16 175.2064 0.22016 1.35168 0.25088 2.74432 0.50176 5.49376-2.69824-1.6896-4.59264-2.82112-6.43584-4.03968a1269627.904 1269627.904 0 0 1-137.13408-90.64448c-17.79712-11.76064-30.58176-10.13248-44.78464 5.504-66.87744 73.65632-133.7856 147.2768-200.6784 220.91776-1.18784 1.31072-2.25792 2.74944-3.70176 4.51072-10.45504-11.47392-20.3776-22.32832-30.25408-33.20832-57.35424-63.17568-114.71872-126.34112-172.08832-189.5168-0.93696-1.03424-1.88416-2.05824-2.82624-3.08736-13.89056-15.08352-26.91072-16.73216-43.86816-5.5296-46.03904 30.4384-92.07296 60.88704-138.112 91.33568-1.79712 1.18272-3.63008 2.3296-6.35392 4.07552 2.74432-17.13152 5.30432-33.1776 7.86944-49.2288 8.0128-50.14528 16.13312-100.28544 24.00768-150.46656 2.39104-15.21152-8.89856-29.41952-24.77056-31.98464-14.80704-2.40128-29.5936 8.25856-32.16384 23.74144-5.33504 32.0256-10.37824 64.09216-15.5136 96.14848-8.64256 53.88288-17.3568 107.75552-25.76384 161.66912-0.96256 6.15424-1.4848 12.94848 0.09728 18.82624 5.08416 18.93376 26.8544 26.36288 43.83232 15.31392 22.37952-14.55104 44.57472-29.39904 66.85184-44.11904l114.86208-75.93984c62.49984 68.85376 125.0304 137.68704 187.56608 206.51008z m46.66368 44.81024c15.88736 0.08192 28.93312 13.3376 28.65664 29.11744-0.26624 15.63136-13.21472 28.39552-28.82048 28.43136a28.70272 28.70272 0 0 1-28.8-28.89216c0.05632-16.1024 12.83072-28.74368 28.96384-28.65664z"  horiz-adv-x="1024" />

    
    <glyph glyph-name="cog" unicode="&#59225;" d="M914.891 476.946l-85.813 17.205c-4.301 12.484-9.442 24.443-15.002 36.088l48.571 72.805c15.001 22.24 11.75 51.928-6.924 70.706l-53.922 53.817c-10.91 10.91-24.968 16.47-39.654 16.47-10.7 0-21.401-3.147-30.947-9.442l-72.805-48.571c-11.854 5.665-23.919 10.7-36.297 15.002l-16.995 85.813c-5.35 26.122-28.429 45.005-55.18 45.005h-75.952c-26.751 0-49.725-18.883-54.866-45.005L401.9 701.026c-12.484-4.301-24.443-9.337-36.192-15.002l-72.7 48.571c-9.651 6.399-20.457 9.442-31.052 9.442-14.582 0-28.744-5.665-39.759-16.47l-53.712-53.817c-18.883-18.883-21.925-48.466-6.924-70.706l48.466-72.805c-5.875-11.645-10.7-23.709-15.001-36.088l-85.813-17.204C82.988 471.701 64 448.727 64 422.081v-76.162c0-26.646 18.883-49.725 45.109-54.866l85.708-17.1a296.527 296.527 0 0 1 15.211-36.193l-48.571-72.805c-15.002-22.135-11.854-51.823 6.924-70.706l53.817-53.817c10.91-10.91 25.177-16.47 39.759-16.47 10.7 0 21.401 3.147 31.052 9.442l72.7 48.571a323.917 323.917 0 0 1 36.192-15.001l17.1-85.813c5.35-26.226 28.325-45.005 54.866-45.005h76.162c26.751 0 49.83 18.778 54.971 45.005l17.1 85.813c12.379 4.301 24.443 9.337 36.193 15.001l72.805-48.571c9.546-6.294 20.247-9.442 30.947-9.442 14.687 0 28.744 5.77 39.654 16.47l53.922 53.817c18.883 18.883 21.925 48.571 6.924 70.706l-48.571 72.805c5.77 11.645 10.7 23.918 15.001 36.193l85.918 17.1c26.119 5.246 45.107 28.43 45.107 54.866v76.162c0 26.646-18.988 49.62-45.109 54.865m-96.829-148.231c-19.617-3.881-35.353-17.834-41.857-36.612-3.462-10.386-7.763-20.142-12.484-30.108-8.602-17.834-7.029-38.815 3.881-55.285l48.571-72.909-53.922-53.712-72.909 48.466c-9.442 6.294-20.037 9.546-30.947 9.546-8.392 0-16.575-1.993-24.338-5.665-9.861-4.826-19.722-9.022-30.108-12.589-18.673-6.609-32.626-22.45-36.507-41.752l-17.309-85.813h-76.162l-17.205 85.813c-3.882 19.512-17.729 35.248-36.507 41.752-10.491 3.567-20.352 7.763-30.108 12.589-7.763 3.672-16.051 5.665-24.338 5.665-10.91 0-21.715-3.252-31.052-9.546l-73.014-48.466-53.711 53.711 48.466 72.909c10.91 16.47 12.484 37.451 3.882 55.285a344.695 344.695 0 0 0-12.694 30.108c-6.294 18.778-22.24 32.731-41.648 36.612l-85.813 17.205v76.162l85.918 17.205c19.303 3.882 35.248 17.624 41.543 36.402 3.567 10.386 7.868 20.352 12.589 30.003 8.707 17.939 7.134 39.13-3.882 55.495L208.036 634.2l53.712 53.817 73.014-48.571c9.337-6.294 20.142-9.337 31.052-9.337 8.288 0 16.575 1.783 24.338 5.56 9.756 4.721 19.617 8.917 30.108 12.589 18.673 6.609 32.626 22.45 36.507 41.752l17.205 85.813h76.162l17.309-85.813c3.672-19.408 17.624-35.248 36.507-41.752 10.491-3.567 20.247-7.868 30.003-12.589 7.868-3.777 16.051-5.56 24.443-5.56 10.91 0 21.506 3.147 30.947 9.337l72.909 48.571 53.922-53.817-48.571-73.014c-10.91-16.47-12.484-37.451-3.881-55.39 4.721-9.756 9.022-19.722 12.484-30.108 6.609-18.673 22.555-32.626 41.857-36.507l85.708-17.205v-76.162l-85.709-17.099z m-306.01 251.249c-108.263 0-195.964-87.701-195.964-195.964 0-108.158 87.701-195.859 195.964-195.859S708.016 275.842 708.016 384c-0.105 108.158-87.806 195.964-195.964 195.964m0-367.275c-94.625 0-171.416 76.686-171.416 171.311 0 94.52 76.791 171.416 171.416 171.416 94.52 0 171.311-76.791 171.311-171.416s-76.895-171.311-171.311-171.311m-0.104 283.245c-61.894 0-111.83-50.04-111.83-111.934s50.04-111.934 111.83-111.934S623.882 322.105 623.882 384c-0.21 61.894-50.04 111.934-111.934 111.934m0-195.754c-46.159 0-83.925 37.556-83.925 83.82s37.556 83.925 83.925 83.925c46.368 0 83.925-37.556 83.925-83.925-0.001-46.368-37.557-83.82-83.925-83.82"  horiz-adv-x="1024" />

    
    <glyph glyph-name="arrow-bottom" unicode="&#59227;" d="M825.78432 513.37216l-314.5472-314.5472-314.5472 314.5472c-12.17536 12.17536-12.17536 32.47104 0 46.67392 12.17536 12.17536 32.47104 12.17536 44.6464 0l269.9008-269.9008 269.9008 269.9008c12.17536 12.17536 32.47104 12.17536 44.6464 0 14.208-12.17536 14.208-32.47104 0-46.67392z"  horiz-adv-x="1024" />

    
    <glyph glyph-name="arrow-left" unicode="&#59228;" d="M641.37 70.214L326.823 384.761 641.37 699.307c12.175 12.175 32.469 12.175 46.675 0 12.175-12.175 12.175-32.469 0-44.645L418.143 384.76l269.902-269.902c12.175-12.175 12.175-32.469 0-44.645-12.175-14.206-32.469-14.206-46.675-0.001z"  horiz-adv-x="1024" />

    
    <glyph glyph-name="sorting_asc" unicode="&#59229;" d="M284.994 482.63l0.354-0.235c5.301-6.183 12.721-10.014 20.973-10.014h411.345c8.425 0 15.905 4.064 21.266 10.37l0.121-0.121c11.487 12.782 11.487 33.519 0 46.305l-206.116 228.379c-11.487 12.841-30.105 12.841-41.59 0l-0.707-1.238-205.641-227.14c-11.547-12.782-11.547-33.519 0-46.305z"  horiz-adv-x="1024" />

    
    <glyph glyph-name="sorting_desc" unicode="&#59230;" d="M284.994 285.37c-11.547-12.782-11.547-33.519 0-46.305l205.641-227.14 0.707-1.238c11.487-12.841 30.096-12.841 41.59 0l206.116 228.379c11.487 12.782 11.487 33.519 0 46.305l-0.121-0.121c-5.362 6.303-12.841 10.37-21.266 10.37h-411.345c-8.249 0-15.67-3.829-20.973-10.014l-0.354-0.235z"  horiz-adv-x="1024" />

    
    <glyph glyph-name="sorting" unicode="&#59231;" d="M284.994 482.63l0.354-0.235c5.301-6.183 12.721-10.014 20.973-10.014h411.345c8.425 0 15.905 4.064 21.266 10.37l0.121-0.121c11.487 12.782 11.487 33.519 0 46.305l-206.116 228.379c-11.487 12.841-30.105 12.841-41.59 0l-0.707-1.238-205.641-227.14c-11.547-12.782-11.547-33.519 0-46.305zM284.994 285.37c-11.547-12.782-11.547-33.519 0-46.305l205.641-227.14 0.707-1.238c11.487-12.841 30.096-12.841 41.59 0l206.116 228.379c11.487 12.782 11.487 33.519 0 46.305l-0.121-0.121c-5.362 6.303-12.841 10.37-21.266 10.37h-411.345c-8.249 0-15.67-3.829-20.973-10.014l-0.354-0.235z"  horiz-adv-x="1024" />

    
    <glyph glyph-name="wish-war" unicode="&#59232;" d="M959.907 226.796c0-44.164-28.391-52.051-67.824-52.051h-23.452c-13.234-49.621-58.358-86.226-112.149-86.226-53.791 0-98.915 36.605-112.149 86.226H519.776c-11.038-49.33-55.011-86.226-107.671-86.226s-96.632 36.896-107.671 86.226H249.07c-18.928 0-33.649 10.515-33.649 32.598v62.04c0 29.443 28.917 38.907 28.917 38.907h-23.133c-23.659 0-29.18 18.402-29.18 29.18 0 10.778 4.995 33.386 33.386 33.386s8.938-0.526 37.33-0.526c35.752 0 39.341 13.168 40.221 29.18 1.314 23.923-8.675 30.757-30.757 30.757H161.794c-31.02 0-31.809 19.979-31.809 31.809s0.263 27.603 27.603 27.603h60.463c16.824 0 28.391 14.721 28.391 28.917s-7.361 28.391-26.814 28.391H84.506C67.682 546.987 64 560.658 64 565.915v19.716c0 6.309 7.098 18.139 22.871 18.139 33.123 0 134.859 0.789 134.859 0.789v18.139c0 18.139 1.577 56.783 60.726 56.783h358.047c33.912 0 55.206-11.83 66.247-48.896s44.164-133.282 44.164-133.282h89.117c40.221 0 80.442-24.448 80.442-76.499v-106.468c43.377 0 39.434-43.376 39.434-87.54zM412.39 272.8c-38.329 0-69.401-31.072-69.401-69.401s31.072-69.401 69.401-69.401 69.401 31.072 69.401 69.401S450.72 272.8 412.39 272.8z m347.006-6.309c-38.329 0-69.401-31.072-69.401-69.401s31.072-69.401 69.401-69.401c38.329 0 69.401 31.072 69.401 69.401s-31.071 69.401-69.401 69.401z"  horiz-adv-x="1024" />

    
    <glyph glyph-name="wish-sup" unicode="&#59233;" d="M820.622 343.68c22.4 44.8 35.342 95.573 35.342 149.333C855.964 680.178 701.653 832 512 832c-190.151 0-343.964-151.822-343.964-338.987 0-53.76 12.942-104.036 35.342-149.333L64 105.742s88.604-17.92 178.204-36.338L361.671-64l128.427 219.022c7.467 0 14.436-0.996 21.902-0.996s14.436 0.498 21.902 0.996L662.329-64l119.467 133.404C871.396 87.822 960 105.742 960 105.742L820.622 343.68zM512 215.751c-154.311 0-279.751 125.44-279.751 280.249 0 154.809 125.44 280.249 279.751 280.249S791.751 650.809 791.751 496 666.311 215.751 512 215.751zM288.498 496c0-123.712 100.065-224 223.502-224s223.502 100.288 223.502 224S635.437 720 512 720 288.498 619.712 288.498 496z"  horiz-adv-x="1024" />

    
    <glyph glyph-name="wish-apr" unicode="&#59234;" d="M950.93 363.397c12.093 11.197 12.093 30.008 0 41.206l-69.871 62.704c-8.062 7.166-11.197 18.811-7.614 29.113l29.113 89.13c4.927 15.676-4.479 32.248-20.603 35.831l-91.817 19.259c-10.749 2.239-19.259 10.749-21.499 21.499l-19.259 91.369c-3.583 16.124-20.155 25.53-35.831 20.603l-89.13-29.113c-10.301-3.583-21.947-0.448-29.113 7.614L532.603 822.93c-11.197 12.093-30.009 12.093-41.206 0l-62.704-69.871c-7.166-8.062-18.811-11.197-29.113-7.614l-89.13 28.665c-15.676 4.927-32.248-4.479-35.831-20.603L255.36 661.69c-2.239-10.749-10.749-19.259-21.499-21.499l-91.369-18.811c-16.124-3.583-25.53-20.155-20.603-35.831l29.113-89.13c3.583-10.301 0.448-21.947-7.614-29.113L73.07 404.603c-12.093-11.197-12.093-30.008 0-41.206l69.871-62.704c8.062-7.166 11.197-18.811 7.614-29.113l-28.665-89.13c-4.927-15.676 4.479-32.248 20.603-35.831l91.817-19.259c10.749-2.239 19.259-10.749 21.499-21.499l19.259-91.817c3.583-16.124 20.155-25.53 35.831-20.603l89.13 29.113c10.301 3.583 21.947 0.448 29.113-7.614l62.704-69.871c11.197-12.093 30.008-12.093 41.206 0l62.704 69.871c7.166 8.062 18.811 11.197 29.113 7.614l89.13-29.113c15.676-4.927 32.248 4.479 35.831 20.603l19.259 91.817c2.239 10.749 10.749 19.259 21.499 21.499l91.817 19.259c16.124 3.583 25.53 20.155 20.603 35.831l-29.113 89.13c-3.583 10.301-0.448 21.947 7.614 29.113l69.421 62.704z m-230.16 96.075l-236.12-236.12c-6.363-6.362-14.846-9.544-23.329-9.544s-16.967 3.181-23.329 9.544L302.965 358.378c-12.725 12.725-12.725 33.934 0 46.659s33.933 12.725 46.659 0l111.698-111.698 212.79 212.791c12.725 12.725 33.933 12.725 46.659 0 13.078-12.725 13.078-33.58-0.001-46.658z"  horiz-adv-x="1024" />

    
    <glyph glyph-name="falling" unicode="&#59235;" d="M810.769 346.667H661.357V757.233c0 41.29-33.104 74.767-74.597 74.767H437.29c-41.203 0-74.601-33.359-74.601-74.767v-410.566H213.282c-41.196 0-52.077-24.765-24.24-55.381L512.024-64l322.987 355.286c27.803 30.589 16.813 55.381-24.242 55.381z"  horiz-adv-x="1024" />

    
    <glyph glyph-name="rising" unicode="&#59236;" d="M835.011 476.714L512.024 832 189.041 476.714c-27.836-30.615-16.956-55.381 24.24-55.381H362.69v-410.566c0-41.407 33.398-74.766 74.601-74.767h149.47c41.492 0 74.596 33.477 74.596 74.767V421.333H810.77c41.054 0 52.044 24.792 24.241 55.381z"  horiz-adv-x="1024" />

    
    <glyph glyph-name="focus" unicode="&#59237;" d="M735.999 736.666c-109.12 0-183.936-50.944-224-125.888-40.064 74.88-112.064 125.888-224 125.888-55.936 0-220.736-57.472-224-280 0.576-279.36 423.488-503.999 448-503.999 24.449 0 445.824 222.912 448 503.999-0.256 224.384-169.344 280-224 280z m-27.648-593.855c-46.336-38.656-97.023-73.856-144.831-102.08-15.808-9.344-46.656-25.153-51.521-29.952 0.896-0.96 1.216-1.535 0-1.535-1.28 0-0.96 0.641 0 1.535-4.864 4.8-35.904 20.8-51.776 30.145-48 28.352-98.879 63.679-145.345 102.464-122.304 102.4-194.751 211.328-194.944 313.023 0.192 111.871 56.192 224.255 168.063 224.255 167.488 0 224-168 224-168s57.6 168 224 168c111.68 0 168-112.96 168-223.487 0-103.039-73.408-212.223-195.648-314.368h0.002zM298.304 610.842c-16.576-3.264-39.232-12.736-61.632-32.192a158.944 158.944 0 0 1-26.751-30.016c-4.096-6.144-7.872-12.544-11.136-19.2-16-31.872-20.992-63.679-20.479-88.384 0-0.704 0-0.704 0.064-1.088 0.512-15.424 13.632-27.455 28.992-26.88 15.488 0.576 27.52 13.696 26.944 29.12-0.32 16.384 3.328 39.808 14.528 62.081a116.21 116.21 0 0 0 7.487 12.865c5.056 7.424 10.816 13.759 17.088 19.264 14.08 12.161 27.84 17.984 35.648 19.456 15.104 3.009 25.023 17.664 22.144 32.768-3.072 15.231-17.728 25.153-32.896 22.208l-0.001-0.002z"  horiz-adv-x="1024" />

    
    <glyph glyph-name="survey" unicode="&#59238;" d="M618.143-6.525l0.088 5.891h-469.29c-8.11 0-8.426 0.309-8.426 8.404V760.362c0 8.096 0.315 8.403 8.426 8.403H852.07c8.096 0 8.411-0.309 8.411-8.403v-392.34l0.073-8.536h1.014c3.468-13.781 15.911-23.83 30.736-23.83 16.867 0 30.772 13.282 31.596 29.546l0.206 1.557V800.309C924.107 817.779 909.9 832 892.438 832H108.714c-17.469 0-31.676-14.222-31.676-31.691v-832.634c0-17.469 14.208-31.676 31.676-31.676h508.701l0.044 5.289c8.837 5.818 14.178 15.588 14.178 26.387 0 10.182-4.819 19.557-13.494 25.8zM940.525 269.203c-4.113 3.393-8.992 5.186-14.119 5.186-10.005 0-17.932-6.626-19.525-8.051L714.134 88.681l-74.262 59.253c-6.339 5.686-13.017 8.566-19.849 8.566-5.444 0-10.688-1.807-15.654-5.407-12.37-9.123-10.938-24.433-4.025-35.335l89.144-120.211c6.905-8.081 14.479-12.18 22.509-12.18 12.539 0 20.921 10.226 22.177 11.9l206.035 241.406c11.769 16.487 5.671 28.254 0.316 32.53zM253.226 266.338c-11.21 0-22.185-4.555-30.09-12.459-7.927-7.919-12.474-18.894-12.474-30.104 0-11.195 4.547-22.171 12.474-30.075 7.919-7.934 18.887-12.488 30.09-12.488 11.195 0 22.163 4.555 30.09 12.474 7.927 7.934 12.466 18.894 12.466 30.09 0 11.21-4.54 22.171-12.466 30.104-7.919 7.904-18.887 12.458-30.09 12.458zM355.851 256.421c-17.461 0-31.669-14.208-31.669-31.676s14.208-31.676 31.669-31.676h244.801c17.469 0 31.676 14.208 31.676 31.676s-14.208 31.676-31.676 31.676H355.851zM283.316 428.128c-7.927 7.934-18.894 12.488-30.09 12.488-11.203 0-22.171-4.555-30.082-12.474-7.934-7.904-12.481-18.865-12.481-30.09 0-11.21 4.547-22.185 12.474-30.09 7.904-7.919 18.88-12.474 30.09-12.474 11.203 0 22.171 4.555 30.096 12.474 7.919 7.934 12.459 18.909 12.459 30.09 0 11.197-4.539 22.157-12.466 30.076zM754.801 399.698c0 17.469-14.215 31.691-31.684 31.691H355.851c-17.461 0-31.669-14.222-31.669-31.691s14.208-31.676 31.669-31.676h367.267c17.469 0 31.683 14.208 31.683 31.676zM248.4 531.825c11.203 0 22.171 4.54 30.096 12.459 7.919 7.919 12.459 18.894 12.459 30.104 0 11.195-4.54 22.156-12.466 30.104-7.941 7.919-18.909 12.459-30.09 12.459-11.195 0-22.163-4.54-30.096-12.474-7.919-7.934-12.459-18.909-12.459-30.09 0-11.21 4.54-22.171 12.466-30.09 7.905-7.917 18.88-12.472 30.09-12.472zM801.229 574.389c0 17.469-14.208 31.676-31.676 31.676H355.851c-17.461 0-31.669-14.208-31.669-31.676 0-17.469 14.208-31.676 31.669-31.676h413.701c17.469-0.001 31.677 14.206 31.677 31.676z"  horiz-adv-x="1024" />

    
    <glyph glyph-name="check" unicode="&#59240;" d="M915.2 697.6c12.833 0 23.508-4.258 32.025-12.775S960 665.633 960 652.8c0-12.6-4.317-23.217-12.95-31.85l-537.6-537.6c-8.633-8.633-19.25-12.95-31.85-12.95s-23.217 4.317-31.85 12.95l-268.8 268.8C68.317 360.783 64 371.4 64 384c0 12.833 4.258 23.508 12.775 32.025S95.967 428.8 108.8 428.8c12.6 0 23.217-4.317 31.85-12.95l236.95-237.3 505.75 506.1c8.633 8.633 19.25 12.95 31.85 12.95z"  horiz-adv-x="1024" />

    
    <glyph glyph-name="del" unicode="&#59241;" d="M797.105 69.228c0-44.982-36.464-81.49-81.448-81.49H335.489c-44.941 0-81.448 36.506-81.448 81.49V560.469h-54.296v-543.022c0-44.981 36.463-81.448 81.446-81.448h488.723c44.982 0 81.488 36.467 81.488 81.448V560.471h-54.298v-491.242h0.001zM444.126 126.044V479.022c0 14.981-12.127 27.15-27.149 27.15-15.024 0-27.15-12.169-27.15-27.15v-352.979c0-14.98 12.126-27.149 27.15-27.149 15.022 0.002 27.149 12.171 27.149 27.15zM932.849 669.108H797.105V777.703c0 30.001-24.337 54.298-54.341 54.298H308.381c-30.001 0-54.339-24.296-54.339-54.298v-108.595H91.148c-14.98 0-27.149-12.169-27.149-27.149 0-15.024 12.169-27.193 27.149-27.193h841.7c14.981 0 27.151 12.169 27.151 27.193 0.002 14.98-12.169 27.149-27.15 27.149z m-190.084 0H308.381v54.298c0 29.961 24.296 54.298 54.3 54.298h325.787c30.001 0 54.296-24.337 54.296-54.298v-54.298h0.001zM661.318 126.044V479.022c0 14.981-12.127 27.15-27.148 27.15-14.981 0-27.15-12.169-27.15-27.15v-352.979c0-14.98 12.169-27.149 27.15-27.149 15.021 0.002 27.148 12.171 27.148 27.15z"  horiz-adv-x="1024" />

    
    <glyph glyph-name="edit" unicode="&#59242;" d="M937.938 632.731L759.606 811.063c-31.845 31.845-63.69 25.476-95.535-6.369L129.074 269.697 71.752 21.306c-12.738-25.476-6.369-50.952 12.738-70.059s44.583-19.107 70.059-6.369l242.022 57.321 534.997 534.997c31.846 25.476 38.215 57.321 6.37 95.535zM129.074 2.199l44.583 222.915 178.332-178.332-222.915-44.583z m267.498 89.166L218.24 269.697l452.2 452.2c31.845 31.845 57.321 31.845 89.166 0l89.166-89.166c31.845-31.845 31.845-57.321 0-89.166l-452.2-452.2z"  horiz-adv-x="1024" />

    
    <glyph glyph-name="store" unicode="&#59239;" d="M960 489.412v52.706a26.29 26.29 0 0 1-2.793 11.806L851.795 764.747c-4.48 8.907-13.598 14.547-23.56 14.547h-632.47c-9.961 0-19.132-5.64-23.56-14.547L66.793 553.924C64.949 550.287 64 546.229 64 542.118v-52.706c0-43.008 20.713-81.272 52.706-105.359v-342.641H90.353C75.806 41.412 64 29.606 64 15.059c0-14.547 11.806-26.353 26.353-26.353h843.294c14.547 0 26.353 11.806 26.353 26.353 0 14.547-11.806 26.353-26.353 26.353h-26.353V384.053C939.286 408.139 960 446.351 960 489.412z m-342.588-79.059c-43.588 0-79.059 35.471-79.059 79.059v26.353h158.118v-26.353c0-43.588-35.471-79.059-79.059-79.059z m-500.706 79.059v26.353h158.118v-26.353c0-43.588-35.471-79.059-79.059-79.059s-79.059 35.471-79.059 79.059z m368.941 237.176V568.47H334.908l39.529 158.118h111.21z m163.915 0l39.529-158.118H538.353V726.588h111.209zM327.53 515.765h158.118v-26.353c0-43.588-35.471-79.059-79.059-79.059s-79.059 35.471-79.059 79.059v26.353z m421.647 0h158.118v-26.353c0-43.588-35.471-79.059-79.059-79.059s-79.059 35.471-79.059 79.059v26.353z m141.831 52.706H743.379L703.85 726.589h108.1l79.058-158.118zM212.051 726.588h108.1L280.622 568.47h-147.63l79.059 158.118z m-42.639-366.306a131.852 131.852 0 0 1 26.353-2.635c43.061 0 81.378 20.766 105.412 52.811 24.034-32.045 62.351-52.811 105.412-52.811S487.966 378.413 512 410.458c19.027-25.299 46.908-43.588 79.059-50.123v-318.871H169.412V360.335v-0.053z m685.176-318.87H643.765v318.87c32.151 6.536 60.032 24.824 79.059 50.123 24.034-32.045 62.351-52.811 105.412-52.811 9.013 0 17.815 0.896 26.353 2.635v-318.871 0.054zM749.177 225.882c0-14.547-11.806-26.353-26.353-26.353-14.547 0-26.353 11.806-26.353 26.353 0 14.547 11.806 26.353 26.353 26.353 14.546 0 26.353-11.806 26.353-26.353zM248.471 199.529a26.472 26.472 0 0 0-18.658 7.695c-10.278 10.278-10.278 26.985 0 37.263l52.706 52.706c10.278 10.278 26.985 10.278 37.263 0 10.278-10.278 10.278-26.985 0-37.263l-52.706-52.706c-5.165-5.165-11.912-7.695-18.658-7.695h0.053zM301.177 94.118a26.472 26.472 0 0 0-18.658 7.695c-10.278 10.278-10.278 26.985 0 37.263l158.118 158.118c10.278 10.278 26.985 10.278 37.263 0s10.278-26.985 0-37.263L319.782 101.813c-5.165-5.165-11.911-7.695-18.658-7.695h0.053zM459.294 94.118a26.472 26.472 0 0 0-18.658 7.695c-10.278 10.278-10.278 26.985 0 37.263l52.706 52.706c10.278 10.278 26.985 10.278 37.263 0 10.278-10.278 10.278-26.985 0-37.263l-52.706-52.706c-5.165-5.165-11.912-7.695-18.658-7.695h0.053z"  horiz-adv-x="1024" />

    
    <glyph glyph-name="move" unicode="&#59243;" d="M502.457-62.102c6.07-2.531 12.97-2.531 19.085 0 3.002 1.254 5.712 3.046 7.974 5.309a0.231 0.231 0 0 1 0.067 0.022L668.644 82.29c9.722 9.722 9.722 25.492 0 35.191-9.699 9.699-25.447 9.699-35.146-0.022l-96.635-96.612 0.022 293.444c0 13.731-11.133 24.864-24.864 24.864s-24.864-11.111-24.864-24.842v-293.466l-96.612 96.612c-9.722 9.699-25.469 9.699-35.124 0-9.722-9.722-9.744-25.469-0.045-35.168L494.46-56.77c0.717-0.717 1.658-1.03 2.464-1.635 1.703-1.389 3.428-2.823 5.533-3.697z m19.085 892.204a24.879 24.879 0 0 1-19.063 0 24.65 24.65 0 0 1-7.997-5.286c-0.022 0-0.067-0.045-0.067-0.045l-139.06-139.039c-9.722-9.722-9.722-25.492 0-35.191 9.699-9.699 25.447-9.699 35.146 0.022l96.635 96.612-0.022-293.444c0-13.731 11.133-24.864 24.864-24.864s24.887 11.111 24.887 24.842V747.175l96.612-96.612c9.722-9.699 25.469-9.699 35.124 0 9.722 9.722 9.767 25.469 0.045 35.168L529.562 824.77c-0.717 0.739-1.658 1.053-2.464 1.658-1.725 1.366-3.45 2.8-5.556 3.674z m436.56-455.644c2.531 6.07 2.531 12.97 0 19.085a24.31 24.31 0 0 1-5.286 7.974c0 0.022-0.045 0.067-0.045 0.067L813.732 540.645c-9.722 9.722-25.514 9.722-35.213 0-9.677-9.699-9.677-25.447 0.045-35.146l96.59-96.635-293.444 0.022c-13.731 0-24.842-11.133-24.842-24.864s11.11-24.864 24.842-24.864h293.444l-96.59-96.612c-9.722-9.722-9.722-25.469 0-35.124 9.722-9.722 25.469-9.744 35.168-0.045L952.77 366.461c0.739 0.717 1.053 1.658 1.658 2.464 1.366 1.702 2.8 3.427 3.674 5.533zM65.898 393.543a24.879 24.879 0 0 1 0-19.063 24.19 24.19 0 0 1 5.286-7.997l0.045-0.045 139.039-139.083c9.722-9.722 25.514-9.722 35.213 0 9.677 9.722 9.677 25.469-0.045 35.168l-96.59 96.635 293.444-0.045c13.731 0 24.842 11.155 24.842 24.864 0 13.731-11.111 24.887-24.842 24.887l-293.444-0.022 96.59 96.612c9.722 9.722 9.722 25.469 0 35.124-9.722 9.722-25.469 9.767-35.168 0.045L71.23 401.539c-0.739-0.717-1.053-1.658-1.658-2.464-1.366-1.702-2.8-3.427-3.674-5.532z"  horiz-adv-x="1024" />

    
    <glyph glyph-name="weixinzhifu" unicode="&#59056;" d="M1474.56 493.226667l-34.133333 20.48c-30.72-81.92-71.68-150.186667-122.88-208.213334l17.066666-34.133333c20.48 23.893333 40.96 47.786667 58.026667 75.093333v-296.96h34.133333V401.066667c20.48 27.306667 34.133333 58.026667 47.786667 92.16zM1757.866667 192.853333l-17.066667 27.306667-51.2-44.373333v129.706666h-174.08v-51.2c3.413333-71.68-13.653333-122.88-51.2-150.186666l17.066667-34.133334c47.786667 40.96 71.68 98.986667 68.266666 170.666667v30.72h102.4v-75.093333c0-27.306667-3.413333-34.133333-10.24-47.786667l20.48-37.546667c20.48 17.066667 51.2 40.96 95.573334 81.92zM1505.28 407.893333h204.8v-34.133333h-204.8zM1727.146667 629.76h-34.133334v-119.466667h-64.853333v170.666667h-30.72v-170.666667h-68.266667V629.76h-34.133333v-153.6h232.106667zM2058.24 370.346667l20.48-34.133334c20.48 30.72 44.373333 68.266667 64.853333 109.226667V42.666667h37.546667V520.533333c20.48 47.786667 40.96 95.573333 54.613333 146.773334l-34.133333 20.48c-34.133333-116.053333-81.92-225.28-143.36-317.44zM1477.973333 670.72l-30.72 20.48c-34.133333-68.266667-71.68-126.293333-119.466666-170.666667l20.48-34.133333c54.613333 51.2 98.986667 112.64 129.706666 184.32zM436.906667 261.12l-3.413334-3.413333c-3.413333-3.413333-10.24-3.413333-13.653333-3.413334-13.653333 0-23.893333 6.826667-30.72 17.066667l-3.413333 3.413333-92.16 204.8V486.4c0 10.24 6.826667 17.066667 17.066666 17.066667 3.413333 0 6.826667 0 10.24-3.413334l109.226667-78.506666c6.826667-3.413333 17.066667-6.826667 27.306667-6.826667 6.826667 0 10.24 0 17.066666 3.413333l508.586667 228.693334C890.88 756.053333 740.693333 827.733333 570.026667 827.733333 293.546667 827.733333 68.266667 636.586667 68.266667 401.066667c0-126.293333 68.266667-242.346667 174.08-320.853334 6.826667-6.826667 13.653333-17.066667 13.653333-27.306666 0-3.413333 0-6.826667-3.413333-10.24-6.826667-30.72-20.48-85.333333-20.48-85.333334 0-3.413333-3.413333-6.826667-3.413334-13.653333 0-10.24 6.826667-17.066667 17.066667-17.066667 3.413333 0 6.826667 0 10.24 3.413334l109.226667 64.853333c6.826667 3.413333 17.066667 6.826667 27.306666 6.826667 3.413333 0 10.24 0 13.653334-3.413334 51.2-13.653333 105.813333-23.893333 163.84-23.893333 276.48 0 501.76 191.146667 501.76 426.666667 0 71.68-20.48 136.533333-58.026667 197.973333l-576.853333-337.92zM1856.853333 687.786667h-34.133333c-20.48-102.4-54.613333-194.56-98.986667-266.24l20.48-37.546667 13.653334 30.72c6.826667 10.24 10.24 20.48 13.653333 27.306667 10.24-92.16 30.72-167.253333 54.613333-221.866667-23.893333-44.373333-61.44-88.746667-112.64-133.12l20.48-34.133333c54.613333 51.2 92.16 95.573333 109.226667 133.12 20.48-40.96 61.44-88.746667 102.4-133.12l20.48 34.133333c-47.786667 47.786667-85.333333 92.16-105.813333 133.12 37.546667 71.68 61.44 174.08 71.68 310.613333h40.96v34.133334h-150.186667c13.653333 37.546667 30.72 85.333333 34.133333 122.88z m47.786667-160.426667c-6.826667-112.64-27.306667-201.386667-54.613333-266.24-20.48 58.026667-37.546667 136.533333-47.786667 235.52 3.413333 10.24 6.826667 20.48 13.653333 30.72h88.746667zM3693.226667 373.76c20.48-44.373333 47.786667-95.573333 71.68-160.426667l37.546666 20.48c-20.48 40.96-44.373333 92.16-78.506666 157.013334l-30.72-17.066667zM3099.306667 694.613333h-37.546667v-92.16h-286.72v-37.546666h286.72v-122.88h-187.733333v-34.133334s27.306667-64.853333 85.333333-136.533333c23.893333-27.306667 51.2-58.026667 85.333333-88.746667-64.853333-40.96-146.773333-78.506667-259.413333-102.4l20.48-37.546666s133.12 27.306667 266.24 116.053333c17.066667-10.24 98.986667-78.506667 252.586667-116.053333l20.48 34.133333s-40.96 10.24-98.986667 34.133333c-40.96 17.066667-95.573333 40.96-143.36 75.093334 75.093333 54.613333 139.946667 136.533333 180.906667 238.933333l-30.72 17.066667h-153.6V561.493333h290.133333V602.453333h-286.72V694.613333z m139.946666-283.306666s-37.546667-105.813333-163.84-197.973334c-61.44 47.786667-122.88 116.053333-163.84 197.973334h327.68zM3426.986667 370.346667l20.48-34.133334c20.48 30.72 44.373333 68.266667 64.853333 109.226667V42.666667h37.546667V520.533333c20.48 47.786667 40.96 95.573333 54.613333 146.773334l-34.133333 20.48c-30.72-116.053333-78.506667-225.28-143.36-317.44zM3949.226667 530.773333V687.786667h-37.546667v-157.013334h-300.373333v-37.546666h300.373333v-344.746667c0-37.546667-23.893333-54.613333-64.853333-54.613333h-20.48v-37.546667h30.72c37.546667 0 54.613333 6.826667 71.68 23.893333 13.653333 17.066667 20.48 37.546667 20.48 68.266667V493.226667h98.986666v37.546666h-98.986666zM2283.52 489.813333H2662.4v-34.133333H2283.52zM2501.973333 616.106667c0 6.826667-6.826667 23.893333-17.066666 37.546666-6.826667 17.066667-13.653333 30.72-17.066667 37.546667l-34.133333-20.48c10.24-23.893333 20.48-44.373333 30.72-64.853333 0-3.413333 3.413333-3.413333 3.413333-6.826667h-221.866667v-37.546667h453.973334v34.133334h-221.866667l23.893333 20.48zM2283.52 384H2662.4v-37.546667H2283.52zM2293.76 66.56h358.4v208.213333H2293.76v-208.213333z m34.133333 174.08h286.72v-136.533333h-286.72v136.533333z"  horiz-adv-x="4096" />

    
    <glyph glyph-name="interact" unicode="&#59244;" d="M871.099 602.733c0 85.904-33.962 117.869-117.869 117.869H575.428s-121.864-7.991-121.864-113.873v-449.465H273.766V530.836H157.895v-363.572c0-67.924 31.964-119.866 117.868-119.866H457.56c71.919 0 113.873 27.969 113.873 119.866V612.733h175.804v-375.57h123.862v365.57zM363.666 530.836L213.833 740.602 64 530.836h209.766zM871.099 237.164H660.334l149.833-209.766L960 237.164z"  horiz-adv-x="1024" />

    
    <glyph glyph-name="guide01" unicode="&#58899;" d="M614.4 476.16c0-16.384-14.336-30.72-30.72-30.72h-307.2c-16.384 0-30.72 14.336-30.72 30.72s14.336 30.72 30.72 30.72h307.2c16.384 0 30.72-14.336 30.72-30.72zM491.52 291.84c0-16.384-14.336-30.72-30.72-30.72h-184.32c-16.384 0-30.72 14.336-30.72 30.72s14.336 30.72 30.72 30.72h184.32c16.384 0 30.72-14.336 30.72-30.72zM983.040 404.48l-389.12-102.4-102.4-389.12 389.12 104.448 102.4 387.072zM548.864-29.696l79.872 296.96 217.088-217.088-296.96-79.872zM778.24 814.080h-163.84v10.24c0 16.384-14.336 30.72-30.72 30.72s-30.72-14.336-30.72-30.72v-10.24h-245.76v10.24c0 16.384-14.336 30.72-30.72 30.72s-30.72-14.336-30.72-30.72v-10.24h-163.84c-22.528 0-40.96-18.432-40.96-40.96v-819.2c0-22.528 18.432-40.96 40.96-40.96h368.64v40.96h-368.64v819.2h163.84v-30.72c0-16.384 14.336-30.72 30.72-30.72s30.72 14.336 30.72 30.72v30.72h245.76v-30.72c0-16.384 14.336-30.72 30.72-30.72s30.72 14.336 30.72 30.72v30.72h163.84v-368.64h40.96v368.64c0 22.528-18.432 40.96-40.96 40.96z"  horiz-adv-x="1024" />

    
    <glyph glyph-name="qiyezhongxin" unicode="&#58931;" d="M978.4888888888889-1.4222222222223309h-34.13333333333333V476.4444444444445c0 75.09333333333333-61.44 136.53333333333333-136.53333333333333 136.53333333333333H603.0222222222222v68.26666666666667c0 75.09333333333333-61.44 136.53333333333333-136.53333333333333 136.53333333333333H193.42222222222227c-75.09333333333333 0-136.53333333333333-61.44-136.53333333333333-136.53333333333333v-682.6666666666666H22.755555555555528c-19.11466666666667 0-34.13333333333333-15.018666666666666-34.13333333333333-34.13333333333333s15.018666666666666-34.13333333333333 34.13333333333333-34.13333333333333h955.7333333333333c19.11466666666667 0 34.13333333333333 15.018666666666666 34.13333333333333 34.13333333333333s-15.018666666666666 34.13333333333333-34.13333333333333 34.13333333333333zM534.7555555555556 612.9777777777779v-614.4H125.15555555555564V681.2444444444444c0 37.54666666666667 30.72 68.26666666666667 68.26666666666667 68.26666666666667h273.06666666666666c37.54666666666667 0 68.26666666666667-30.72 68.26666666666667-68.26666666666667v-68.26666666666667z m341.3333333333333-614.4H603.0222222222222V544.7111111111112h204.8c37.54666666666667 0 68.26666666666667-30.72 68.26666666666667-68.26666666666667v-477.8666666666667zM432.35555555555555 612.9777777777779H227.5555555555556c-19.11466666666667 0-34.13333333333333-15.018666666666666-34.13333333333333-34.13333333333333s15.018666666666666-34.13333333333333 34.13333333333333-34.13333333333333h204.8c19.11466666666667 0 34.13333333333333 15.018666666666666 34.13333333333333 34.13333333333333s-15.018666666666666 34.13333333333333-34.13333333333333 34.13333333333333z m0-204.8H227.5555555555556c-19.11466666666667 0-34.13333333333333-15.018666666666666-34.13333333333333-34.13333333333333s15.018666666666666-34.13333333333333 34.13333333333333-34.13333333333333h204.8c19.11466666666667 0 34.13333333333333 15.018666666666666 34.13333333333333 34.13333333333333s-15.018666666666666 34.13333333333333-34.13333333333333 34.13333333333333z m0-204.8H227.5555555555556c-19.11466666666667 0-34.13333333333333-15.018666666666666-34.13333333333333-34.13333333333333s15.018666666666666-34.13333333333333 34.13333333333333-34.13333333333333h204.8c19.11466666666667 0 34.13333333333333 15.018666666666666 34.13333333333333 34.13333333333333s-15.018666666666666 34.13333333333333-34.13333333333333 34.13333333333333z m341.3333333333333 204.8h-68.26666666666667c-19.11466666666667 0-34.13333333333333-15.018666666666666-34.13333333333333-34.13333333333333s15.018666666666666-34.13333333333333 34.13333333333333-34.13333333333333h68.26666666666667c19.11466666666667 0 34.13333333333333 15.018666666666666 34.13333333333333 34.13333333333333s-15.018666666666666 34.13333333333333-34.13333333333333 34.13333333333333z m0-204.8h-68.26666666666667c-19.11466666666667 0-34.13333333333333-15.018666666666666-34.13333333333333-34.13333333333333s15.018666666666666-34.13333333333333 34.13333333333333-34.13333333333333h68.26666666666667c19.11466666666667 0 34.13333333333333 15.018666666666666 34.13333333333333 34.13333333333333s-15.018666666666666 34.13333333333333-34.13333333333333 34.13333333333333z"  horiz-adv-x="1024" />

    
    <glyph glyph-name="zengzhifuwu" unicode="&#58993;" d="M585.6824888888889 607.1318755555556A117.81916444444444 117.81916444444444 0 0 0 530.2044444444444 593.3511111111111c-20.03399111111111 0-38.902897777777774 4.978915555555556-55.44163555555556 13.76256L339.60391111111113 425.4333155555555a31.857777777777777 31.857777777777777 0 0 0-38.59342222222222-10.048853333333334l-161.86481777777777 72.52650666666666 81.73795555555556-486.24071111111107h618.65984l81.73795555555556 486.24071111111107-161.85571555555555-72.52650666666666a31.857777777777777 31.857777777777777 0 0 0-38.59342222222222 10.048853333333334l-135.168 181.69856z m46.42133333333333 44.34602666666666l124.60942222222222-167.49909333333335 192.83968 86.40739555555555c23.210666666666665 10.40384 48.66048-9.25696 44.446151111111114-34.35178666666666l-96.08305777777778-571.5012266666666a31.857777777777777 31.857777777777777 0 0 0-31.41176888888889-26.578488888888888h-672.5632a31.857777777777777 31.857777777777777 0 0 0-31.40266666666667 26.578488888888888L66.44622222222216 536.0344177777779c-4.223431111111111 25.09482666666667 21.22638222222222 44.755626666666664 44.446151111111114 34.35178666666666l192.83968-86.40739555555555 124.59121777777777 167.47178666666667A117.78275555555554 117.78275555555554 0 0 0 411.87555555555554 711.6800000000001c0 65.35395555555554 52.97493333333333 118.3288888888889 118.3288888888889 118.3288888888889s118.3288888888889-52.97493333333333 118.3288888888889-118.3288888888889a117.78275555555554 117.78275555555554 0 0 0-16.438613333333333-60.20209777777778zM584.8177777777778 711.6800000000001a54.61333333333334 54.61333333333334 0 0 1-54.61333333333334 54.61333333333334 54.61333333333334 54.61333333333334 0 0 1-54.61333333333334-54.61333333333334 54.61333333333334 54.61333333333334 0 0 1 54.61333333333334-54.61333333333334 54.61333333333334 54.61333333333334 0 0 1 54.61333333333334 54.61333333333334zM320.85333333333335 101.83111111111111h418.7022222222222v63.715555555555554H320.85333333333335z"  horiz-adv-x="1024" />

    
    <glyph glyph-name="zeng" unicode="&#59245;" d="M763.00288 561.09568h130.40128v-36.84864h-130.40128v36.84864z m0-61.54752h130.40128v-37.23776h-130.40128v37.23776zM0 896l510.29504-513.70496L1029.12-128V896H0z m562.8928-108.66688h129.96608V541.4912h-27.23328V761.856h-75.50976v-222.70976h-27.23328l0.01024 248.18688z m132.4288-346.58816c-18.95936 24.82176-40.56064 49.65888-64.768 74.48576-12.6464-38.94272-33.28-69.64736-61.89056-92.1344a222.81216 222.81216 0 0 1-21.44768 23.53152c44.56448 32.40448 66.8416 81.80224 66.8416 148.18816V726.16448h27.23328v-129.00352c-0.26624-25.35424-3.16928-49.90976-8.66304-73.70752l15.67744 12.9536c27.23328-26.92608 51.44576-52.03456 72.6272-75.27936-0.01024 0-25.61024-20.38272-25.61024-20.38272z m226.1248-21.58592h-28.04224v18.05312h-130.40128v-18.05312h-28.04224V586.19904h186.49088l-0.00512-167.04z m16.1024 185.85088h-26.41408v12.55424H744.8576v-12.55424h-26.41408V754.77504h60.66176c-11.27936 15.17056-21.46304 27.70432-30.53056 37.63712l21.44768 15.30368c11.55072-11.24864 23.37792-23.93088 35.4816-38.03648l-19.79904-14.90944h54.87616a578.16064 578.16064 0 0 1 40.42752 52.94592l25.6-16.47616a1507.51744 1507.51744 0 0 0-31.77472-36.46464h62.72512l-0.01024-149.76512zM744.8576 641.87904h69.72416V730.46528H744.8576v-88.58624z m30.52544 75.25376c11.56608-18.54976 21.17632-35.39968 28.8768-50.57024l-23.93088-11.36128a519.31648 519.31648 0 0 1-25.99936 50.57024l21.05344 11.36128z m65.6128-75.25376h70.13888V730.46528h-70.13888v-88.58624z m37.12512 74.88l22.30272-11.37664c-8.2688-18.56-17.22368-35.42016-26.83392-50.57024l-22.70208 11.75552c9.08288 14.12608 18.17088 30.85312 27.23328 50.19136z"  horiz-adv-x="1029" />

    
    <glyph glyph-name="chongzhi" unicode="&#59246;" d="M609.664 246.12352H413.49632a27.74528 27.74528 0 1 0 0 55.49056h196.16768a27.74528 27.74528 0 1 0 0-55.49056z m0-95.0016H413.49632a27.74528 27.74528 0 1 0 0 55.49056h196.16768a27.74528 27.74528 0 1 0 0-55.49056z m-98.08384-96.4096a27.74528 27.74528 0 0 0-27.74528 27.74528V335.4624a27.74528 27.74528 0 1 0 55.49056 0v-253.0048a27.74016 27.74016 0 0 0-27.74528-27.74528z m0.41472 252.99968a27.6736 27.6736 0 0 0-19.28192 7.79264L395.3664 409.58976a27.7504 27.7504 0 0 0 38.56384 39.90528l97.34656-94.08512a27.7504 27.7504 0 0 0-19.28192-47.69792z m-0.0768-0.08704a27.74528 27.74528 0 0 0-19.28192 47.69792l97.4336 94.17216a27.7504 27.7504 0 0 0 38.56384-39.90528l-97.4336-94.17216a27.68384 27.68384 0 0 0-19.28192-7.79264z m0.96768-408.81152c-72.54016 0-136.02304 7.74656-188.69248 23.02464-53.85216 15.60576-99.08736 38.67136-134.4512 68.55168-35.92192 30.31552-62.6944 67.67104-79.55456 111.01696-16.40448 42.1632-24.71936 90.36288-24.71936 143.26272 0 32.01024 3.69152 62.50496 10.9824 90.63936 7.23968 27.89888 17.12128 54.25664 29.37344 78.36672 12.16 23.94624 25.91744 46.01856 40.8832 65.6128 14.78656 19.3536 30.3872 37.248 46.37184 53.18144 38.27712 38.1952 70.1184 59.136 115.47648 84.41344a27.6992 27.6992 0 0 0 13.42464 3.5072l344.64256 1.01376h0.08192c4.78208 0 9.47712-1.23392 13.63968-3.584 47.3088-26.71104 73.07264-48.80384 109.7216-85.3504l0.37888-0.38912c15.11936-15.67744 30.47936-33.29536 45.64992-52.36736 15.7696-19.8144 29.83424-42.12736 41.79968-66.30912 11.89376-24.05888 21.69856-50.24256 29.14816-77.824 7.6288-28.24192 11.49952-58.83392 11.49952-90.91584 0-52.90496-8.31488-101.10464-24.71936-143.26272-16.86016-43.33568-43.6224-80.6912-79.54432-111.02208-35.33824-29.85984-80.41472-52.92544-133.98016-68.53632-52.39296-15.2832-115.44576-23.02976-187.41248-23.02976zM349.3376 564.92032c-38.48704-21.7344-64.896-39.6288-97.08032-71.74144-14.2336-14.19264-28.18048-30.20288-41.46176-47.58528-12.92288-16.91136-24.86784-36.10624-35.50208-57.05216-10.4448-20.55168-18.89792-43.14112-25.12896-67.15392-6.10816-23.58272-9.20576-49.39776-9.20576-76.71296 0-45.98784 7.04512-87.41888 20.94592-123.14112 13.46048-34.60608 34.87744-64.4608 63.6416-88.73984 29.3888-24.832 67.77344-44.22656 114.0992-57.6512 47.65184-13.824 105.9328-20.82816 173.24032-20.82816 66.70336 0 124.52864 7.00416 171.86816 20.8128 46.06976 13.42976 84.3264 32.82944 113.70496 57.65632 28.76928 24.2944 50.176 54.14912 63.63648 88.75008 13.89568 35.72224 20.9408 77.15328 20.9408 123.14112 0 27.19744-3.2256 52.9152-9.57952 76.44672-6.50752 24.10496-15.02208 46.8736-25.31328 67.6864-10.21952 20.64896-22.15936 39.61344-35.4816 56.35584-14.01856 17.61792-28.14464 33.83808-41.98912 48.2048-31.88224 31.77984-53.42208 50.4832-91.33056 72.5248l-330.00448-0.9728z m21.32992 75.29472c-24.704 0-36.67456 10.79808-47.65696 22.8864a3138.38592 3138.38592 0 0 1-28.96896 30.17728c-11.28448 11.60192-17.0496 17.00864-19.90144 19.50208a84.74624 84.74624 0 0 0-17.58208 21.39648 92.8768 92.8768 0 0 0-10.02496 25.04704 66.2784 66.2784 0 0 0 0.02048 31.32928c2.50368 10.5216 7.71584 20.31616 15.46752 29.02528a26.9824 26.9824 0 0 0 1.11616 1.18272c10.112 10.10688 21.02784 15.232 32.44032 15.232 1.69984 0 3.40992-0.11776 5.08416-0.35328l0.11776-0.01536c6.85056-0.99328 13.8496-3.18464 21.39136-6.7072 4.84864-2.27328 10.52672-4.76672 16.9216-7.42912 1.99168-0.82432 6.7328-2.23744 15.6928-2.23744 1.96096 0 3.072 0.26624 3.45088 0.4096a149.1456 149.1456 0 0 1 13.23008 14.3104 175.90272 175.90272 0 0 0 19.22048 20.23424c11.15648 9.96352 25.35936 14.98624 42.28096 14.98624 21.44256 0 34.83648-8.39168 42.30144-15.4368a170.07104 170.07104 0 0 0 18.4064-20.4544 69.25312 69.25312 0 0 1 11.58656-11.84768c0.09216-0.0768 1.79712-1.32096 7.63904-1.32096 2.23232 0 3.01568 0.384 3.02592 0.38912a149.74976 149.74976 0 0 1 13.70624 14.04928 186.6752 186.6752 0 0 0 20.11648 20.07552c11.32032 9.66656 25.50784 14.55104 42.20928 14.55104 21.10976 0 34.61632-8.13568 42.22976-14.95552a153.64096 153.64096 0 0 0 19.37408-20.93568 111.41632 111.41632 0 0 1 12.12928-13.52192c0.40448-0.14848 1.7152-0.52736 4.4544-0.52736 8.76032 0 13.08672 1.3056 14.88896 2.08384a645.1712 645.1712 0 0 1 16.78848 7.56224c7.56736 3.53792 14.55616 5.72928 21.41696 6.72768a36.61824 36.61824 0 0 0 5.21728 0.37376c11.41248 0 22.3232-5.12512 32.44032-15.232 0.384-0.384 0.75776-0.77824 1.11616-1.18272 8.05888-9.05216 13.21472-19.26144 15.31904-30.34112a76.63104 76.63104 0 0 0 0-28.77952 78.1824 78.1824 0 0 0-10.8032-27.12576c-4.6592-7.3472-9.80992-13.83424-15.34464-19.33824-0.41984-0.41984-0.85504-0.8192-1.29536-1.20832-2.79552-2.44224-8.50944-7.808-19.88608-19.50208a3026.70848 3026.70848 0 0 1-29.16864-30.39232l-0.08192-0.08704c-7.1168-7.44448-13.2608-13.88032-23.94624-17.78176-8.58112-3.13856-16.78848-3.5328-31.68768-4.25984a29.37344 29.37344 0 0 0-1.34656-0.03072H381.48096a123.392 123.392 0 0 0-10.81344-0.52736z m-2.0736 55.57248c0.4352-0.04096 1.1008-0.0768 2.06848-0.0768 1.84832 0 4.16256 0.128 7.07584 0.39424 0.83456 0.0768 1.66912 0.11264 2.5088 0.11264h262.83008c5.32992 0.26112 10.69568 0.52736 13.57824 0.84992 1.07008 1.05984 2.5344 2.59072 3.88608 4.00896a3026.1248 3026.1248 0 0 0 29.6704 30.91456c9.78944 10.06592 17.11104 17.23904 22.32832 21.87264 2.432 2.50368 4.80256 5.57056 7.05536 9.12384a22.4256 22.4256 0 0 1 3.19488 7.85408 20.992 20.992 0 0 1 0.20992 6.71232c-4.77696-2.21184-10.12224-4.608-15.90272-7.12704-10.39872-4.50048-22.4768-6.67136-36.97664-6.67136-21.48352 0-34.8928 8.4224-42.35264 15.488a166.72768 166.72768 0 0 0-18.36032 20.41856 97.408 97.408 0 0 1-12.31872 13.2864c-0.01536 0-1.29536 0.75264-5.15072 0.75264-2.944 0-5.23776-0.4608-6.13888-1.22368a130.95424 130.95424 0 0 1-14.09024-14.05952 204.99456 204.99456 0 0 0-18.85184-19.28704c-10.5728-9.46688-24.41216-14.4896-39.97696-14.4896-17.03424 0-31.32928 4.58752-42.50112 13.63968a124.68224 124.68224 0 0 0-20.82816 21.34016 114.04288 114.04288 0 0 1-12.14976 13.55264c-0.39936 0.14848-1.71008 0.52736-4.44928 0.52736-3.5584 0-5.05856-0.65024-5.23776-0.81408a120.26368 120.26368 0 0 1-13.1328-13.82912 205.37344 205.37344 0 0 0-18.36544-19.84512c-7.424-7.02976-20.67968-15.45216-41.44128-15.45216-14.3616 0-26.46016 2.11968-36.97664 6.48192a501.0432 501.0432 0 0 0-17.24928 7.5264l-0.03072-0.13824c-0.46592-1.9456-0.46592-3.6096-0.02048-5.47328 0.84992-3.56864 2.176-6.8608 4.0704-10.14272a29.056 29.056 0 0 1 6.05184-7.40864c5.39136-4.71552 12.96896-12.10368 23.20384-22.6304a3355.92448 3355.92448 0 0 0 29.68064-30.91968l0.41472-0.45056c2.57536-2.84672 3.94752-4.18816 4.67456-4.81792z"  horiz-adv-x="1024" />

    
    <glyph glyph-name="fire" unicode="&#59247;" d="M442.036 829s72.038-143.168-159.293-384.201C53.019 182.197 270.528 0.916 452.646-61c0 0-126.624 125.856-9.074 279.774 53.819 65.057 131.72 139.747 131.72 139.747S723.904 108.484 527.825-61c0 0 377.693 78.013 302.654 442.809C764.584 657.953 442.036 829 442.036 829z"  horiz-adv-x="1024" />

    
    <glyph glyph-name="veryFire" unicode="&#59248;" d="M533.043 829c23.783-43.286 38.627-101.583 38.627-166.116 0-133.234-62.333-241.271-139.277-241.271-59.962 0-110.634 66.055-130.259 158.178C232.46 481.396 173.78 364.839 173.78 249.479 173.78 77.997 325.221-61 511.983-61c186.798 0 338.237 138.997 338.237 310.482C850.219 560.975 545.48 818.597 533.043 829zM514.78 13.212c-113.94 0-147.946 88.224-142.074 123.806 11.703 70.907 81.723 82.477 134.612 82.477 125.866 0 176.54 131.024 179.532 164.994 0.001 0.001 45.314-371.277-172.07-371.277z"  horiz-adv-x="1024" />

    
    <glyph glyph-name="specialFire" unicode="&#59249;" d="M343.969-61c-58.92 124.042-27.909 195.366 18.606 260.488 49.617 74.425 62.021 145.749 62.021 145.749s40.314-49.617 24.808-130.244c68.223 77.526 80.627 201.568 71.324 248.084C675.781 354.54 744.004 115.76 654.074-57.899c477.561 272.892 117.84 679.129 55.819 722.544 21.707-46.516 24.808-124.042-18.606-161.254C619.962 776.282 443.203 829 443.203 829c21.707-139.547-74.425-291.498-167.456-406.237-3.101 55.819-6.202 93.031-37.213 148.85-6.202-102.335-83.728-182.962-105.436-285.296C105.189 146.77 154.805 47.537 343.969-61z"  horiz-adv-x="1024" />

    
    <glyph glyph-name="scalp" unicode="&#59250;" d="M376.725 738.162h204.637c21.559 0 39.749 20.323 39.749 45.475C621.112 808.733 602.977 829 580.182 829H376.725c-22.681 0-40.816-20.267-40.816-45.362 0.001-25.096 18.191-45.476 40.816-45.476M804.47 240.574c23.805 0 46.43-4.883 66.977-13.867V676.07c0 61.643-33.067 104.311-102.347 104.311h-92.24c0.898-4.94 1.46-9.993 1.46-15.102 0.056-38.176-27.567-75.735-60.353-75.735H334.675c-34.527 0-62.15 37.56-62.15 75.735 0.057 5.053 0.619 10.162 1.517 15.102h-93.364c-75.006 0-93.421-42.668-93.421-104.311v-610.096c0-66.191 26.387-103.246 99.09-103.246H674.84c-24.423 29.363-39.132 67.258-39.132 108.522-0.001 93.533 75.511 169.324 168.762 169.324M284.147 548.682H683.99c14.765 0 27.229-13.81 28.353-29.755 0-14.878-15.496-30.823-30.261-30.823H281.114c-14.821 0-24.197 15.944-24.197 30.823 0.001 14.878 12.465 29.755 27.23 29.755m180.047-402.594h-183.08c-14.821 0-24.197 15.944-24.197 30.822 0 14.877 12.464 29.7 27.229 29.7h181.956c14.821 0 27.285-13.699 28.408-29.7 0-14.877-15.551-30.822-30.316-30.822M279.43 314.459c-14.765 0-29.531 18.189-29.531 33.069 0 14.82 12.464 27.451 27.286 27.451h399.844c14.764 0 27.228-11.508 28.407-27.451 0-14.879-10.218-33.069-24.982-33.069H279.43z m656.668-228.308h-0.162c-0.539 5.285-4.745 9.491-10.029 10.029h-6.2v0.053c-6.579 0-12.348 3.828-15.098 9.382-0.647 1.348-1.187 2.805-1.457 4.368-1.24 3.451-2.642 6.848-4.206 10.083-0.808 1.186-1.402 2.427-1.887 3.775a16.339 16.339 0 0 0-0.97 5.607c0 4.638 1.887 8.844 4.906 11.918l3.451 3.451c0.055 0.055 0.107 0.055 0.163 0.107 0.054 0.054 0.054 0.108 0.107 0.163 3.99 4.098 4.205 10.515 0.647 14.882l0.054 0.054a164.481 164.481 0 0 1-8.251 9.059 138.34 138.34 0 0 1-9.274 8.466l-0.054-0.054c-3.937 3.235-9.599 3.343-13.697 0.378l-2.479-2.48-2.319-2.265-0.107 0.107c-4.908-4.907-12.078-6.147-18.172-3.721-0.809 0.323-1.617 0.701-2.372 1.186a105.425 105.425 0 0 1-11.971 4.908c-0.755 0.161-1.456 0.431-2.157 0.701-1.941 0.754-3.829 1.994-5.446 3.612-2.75 2.75-4.313 6.2-4.799 9.814a18.26 18.26 0 0 0 0 4.206v2.912c0 5.5-3.99 10.137-9.22 11.054l-1.943 0.161c-3.775 0.269-7.494 0.431-11.269 0.431-3.775 0-7.495-0.162-11.215-0.485-0.646-0.053-1.294-0.107-1.995-0.162-5.23-0.917-9.221-5.5-9.221-11.054v-5.014c0-7.226-4.529-13.373-10.945-15.799a8.367 8.367 0 0 0-1.24-0.431c-4.476-1.51-8.845-3.343-13.049-5.392h-0.054c-0.324-0.162-0.647-0.323-1.025-0.485a16.863 16.863 0 0 0-7.01-1.51 16.748 16.748 0 0 0-11.863 4.908h-0.055l-3.558 3.558c-3.883 3.882-9.921 4.313-14.289 1.294-0.484-0.431-1.025-0.809-1.51-1.24l-0.054-0.054a137.287 137.287 0 0 1-15.853-15.852c-0.431-0.486-0.863-1.026-1.294-1.511-3.074-4.367-2.642-10.406 1.294-14.343l3.56-3.558c5.069-5.123 6.254-12.672 3.451-18.873a11.5 11.5 0 0 0-0.594-1.132 106.348 106.348 0 0 1-5.392-12.995c-0.107-0.485-0.323-0.917-0.484-1.402-0.809-2.103-2.103-4.152-3.828-5.823-3.29-3.29-7.603-4.908-11.918-4.908v-0.053h-5.014c-5.5 0-10.138-3.99-11.054-9.221-0.054-0.646-0.107-1.294-0.163-1.995a155.453 155.453 0 0 1-0.431-11.215v-0.216c0-3.721 0.162-7.387 0.431-11.054l0.163-1.942c0.917-5.23 5.5-9.22 11-9.22h5.014c7.172 0 13.266-4.475 15.692-10.783 0.161-0.432 0.323-0.863 0.431-1.241 0.055 0 0.055-0.054 0.055-0.054 1.509-4.475 3.343-8.843 5.392-13.048 0.052 0 0.052-0.055 0.052-0.055 0.163-0.324 0.325-0.647 0.486-1.026a17.043 17.043 0 0 0 1.51-7.009c0-4.638-1.887-8.843-4.907-11.918l-3.396-3.397c-0.055-0.054-0.108-0.054-0.108-0.107-0.054-0.054-0.107-0.107-0.107-0.161-3.721-3.829-4.152-9.761-1.241-14.073 0.485-0.594 0.97-1.187 1.457-1.779 2.372-2.859 4.907-5.554 7.548-8.197 2.642-2.642 5.339-5.176 8.196-7.548 0.593-0.486 1.133-0.971 1.726-1.457 3.882-2.642 9.059-2.534 12.888 0.269l2.48 2.48 2.318 2.318 0.107-0.108c5.123 5.07 12.671 6.255 18.873 3.398 0.323-0.108 0.647-0.269 0.916-0.431 0 0 0.055 0 0.055-0.054a100.975 100.975 0 0 1 13.157-5.447c0.377-0.107 0.753-0.269 1.132-0.377 2.211-0.809 4.26-2.103 6.039-3.882 3.289-3.289 4.907-7.602 4.907-11.917h0.054v-4.907c0-5.769 4.422-10.568 10.082-11.161v-0.055c4.098-0.377 8.196-0.593 12.348-0.593s8.304 0.162 12.348 0.593v0.055c5.662 0.593 10.083 5.392 10.083 11.161v5.015c0 6.74 3.99 12.564 9.706 15.26 1.187 0.539 2.372 0.97 3.666 1.241a110.74 110.74 0 0 1 10.784 4.475 18.175 18.175 0 0 0 3.236 1.617 16.466 16.466 0 0 0 5.878 1.079c4.259 0 8.142-1.617 11.161-4.26 0.539-0.431 0.97-0.917 1.457-1.457l2.858-2.857c3.936-3.937 10.137-4.314 14.504-1.187 0 0 0.054 0 0.054 0.054 0.377 0.323 0.7 0.593 1.079 0.917a116.345 116.345 0 0 1 8.466 7.819 130.967 130.967 0 0 1 7.818 8.519c0.323 0.377 0.647 0.754 0.97 1.186 3.073 4.206 2.804 10.082-0.755 14.073l-0.809 0.809-3.127 3.127c-5.016 5.015-6.201 12.402-3.56 18.549 0.27 0.593 0.539 1.132 0.864 1.671 1.994 4.045 3.719 8.251 5.229 12.564 0.163 0.594 0.324 1.132 0.593 1.672 0.809 2.103 2.103 4.043 3.775 5.769 3.289 3.29 7.602 4.907 11.916 4.907h4.853v0.055c5.986 0 10.892 4.69 11.216 10.622h0.162c0.323 3.883 0.485 7.819 0.485 11.755a157.14 157.14 0 0 1-0.646 12.349z m-65.299-12.456c0-7.872-1.294-15.422-3.721-22.432a65.866 65.866 0 0 0-3.236-7.818c-3.343-6.902-7.872-13.158-13.21-18.55-5.339-5.391-11.594-9.867-18.496-13.264-2.533-1.241-5.176-2.372-7.872-3.289a68.73 68.73 0 0 0-22.432-3.775h-0.215a68.83 68.83 0 0 0-22.216 3.666c-2.804 0.917-5.5 2.103-8.143 3.343-6.848 3.342-13.049 7.819-18.388 13.157-5.392 5.338-9.867 11.592-13.265 18.441a59.205 59.205 0 0 0-3.342 8.088c-2.427 7.009-3.722 14.451-3.722 22.27 0 7.765 1.347 15.637 3.722 22.593a87.732 87.732 0 0 0 3.342 8.088 68.375 68.375 0 0 0 13.265 18.441 68.428 68.428 0 0 0 18.549 13.211c2.589 1.241 5.23 2.372 8.034 3.289a69.054 69.054 0 0 0 22.217 3.666h0.215a68.488 68.488 0 0 0 22.432-3.775c2.696-0.917 5.338-2.049 7.872-3.289a69.478 69.478 0 0 0 18.494-13.265 71.573 71.573 0 0 0 13.157-18.387 67.933 67.933 0 0 0 3.289-7.927c2.427-7.01 3.721-14.559 3.721-22.378v-0.107h-0.053l0.002 0.003z"  horiz-adv-x="1024" />

    
    </font>
</defs>
</svg>
